<svg width="11" height="11" viewBox="0 0 61 60" fill="none" xmlns="http://www.w3.org/2000/svg">
<path d="M30.5 9C23.882 9 18.5 14.382 18.5 21C18.5 21.3978 18.658 21.7794 18.9393 22.0607C19.2206 22.342 19.6022 22.5 20 22.5C20.3978 22.5 20.7794 22.342 21.0607 22.0607C21.342 21.7794 21.5 21.3978 21.5 21C21.5 16.038 25.538 12 30.5 12C35.462 12 39.5 16.038 39.5 21C39.5 24.747 37.424 26.589 34.775 28.86L34.679 28.941C32.102 31.152 29 33.81 29 39V40.5C29 40.8978 29.158 41.2794 29.4393 41.5607C29.7206 41.842 30.1022 42 30.5 42C30.8978 42 31.2794 41.842 31.5607 41.5607C31.842 41.2794 32 40.8978 32 40.5V39C32 35.253 34.076 33.411 36.725 31.14L36.821 31.059C39.398 28.845 42.5 26.193 42.5 21C42.5 14.382 37.118 9 30.5 9ZM30.5 51C31.0967 51 31.669 50.7629 32.091 50.341C32.5129 49.919 32.75 49.3467 32.75 48.75C32.75 48.1533 32.5129 47.581 32.091 47.159C31.669 46.7371 31.0967 46.5 30.5 46.5C29.9033 46.5 29.331 46.7371 28.909 47.159C28.4871 47.581 28.25 48.1533 28.25 48.75C28.25 49.3467 28.4871 49.919 28.909 50.341C29.331 50.7629 29.9033 51 30.5 51Z" fill="black"/>
</svg>
