<?xml version="1.0" encoding="UTF-8"?>
<svg id="_1_우리" data-name="1 우리" xmlns="http://www.w3.org/2000/svg" width="14px" height="14px" viewBox="0 0 40 40">
  <defs>
    <style>
      .cls-1 {
        fill: none;
        stroke: #000;
        stroke-linejoin: round;
      }
    </style>
  </defs>
  <polygon class="cls-1" points="31.82 25.55 30.08 28.04 29.46 27.61 28.84 27.17 27.1 29.65 26.48 29.22 25.86 28.78 24.13 31.26 23.51 30.84 22.89 30.4 21.15 32.88 20 32.08 17.37 30.23 14.72 28.37 12.09 26.52 9.44 24.68 2.55 19.85 9.8 9.5 16.78 9.5 20 11.75 13.02 16.64 15.63 20.35 20 17.29 24.37 20.35 24.99 20.79 30.56 24.68 31.82 25.55"/>
  <line class="cls-1" x1="20.78" y1="21.53" x2="29.46" y2="27.61"/>
  <line class="cls-1" x1="19.04" y1="24.01" x2="26.48" y2="29.22"/>
  <line class="cls-1" x1="17.31" y1="26.49" x2="23.51" y2="30.83"/>
  <polygon class="cls-1" points="37.45 19.85 30.56 24.68 24.99 20.79 24.37 20.35 20 17.29 15.63 20.35 13.02 16.64 20 11.75 23.22 9.5 30.2 9.5 37.45 19.85"/>
</svg>