<?xml version="1.0" encoding="UTF-8"?>
<svg id="_2_재미" data-name="2 재미" xmlns="http://www.w3.org/2000/svg" width="14px" height="14px" viewBox="0 0 40 40">
  <path d="M20,2.96h0c.67,0,1.35,.04,2.03,.12,6.95,.81,12.61,5.71,14.43,12.48,1.38,5.17,.24,10.69-3.05,14.88-4.69-.71-8.87-3.33-11.53-7.26l-1.62-2.39-.21,2.88c-.34,4.73-2.65,9.09-6.36,12.05-4.34-1.74-7.78-5.2-9.49-9.58-.22-.53-.42-1.13-.59-1.78-.16-.6-.28-1.21-.38-1.86-.95-6.22,1.59-12.41,6.64-16.17,1.72-1.29,3.65-2.24,5.76-2.8,1.43-.38,2.9-.58,4.36-.58m0-1c-1.53,0-3.08,.2-4.62,.61-2.27,.61-4.32,1.63-6.1,2.97C4.06,9.42,1.22,15.99,2.24,22.66c.1,.66,.23,1.31,.4,1.96,.18,.66,.38,1.3,.63,1.9,1.92,4.93,5.86,8.61,10.58,10.33,4.16-3.11,6.81-7.9,7.19-13.11,2.93,4.32,7.63,7.15,12.78,7.76,3.63-4.33,5.16-10.32,3.59-16.2-1.97-7.33-8.19-12.38-15.28-13.21-.71-.09-1.42-.13-2.15-.13h0Z"/>
  <path d="M5.98,31.19c.41,.52,.85,1.02,1.33,1.5,.48,.48,.98,.93,1.5,1.33l-2.6,2.6-2.83-2.83,2.6-2.6m.09-1.5l-.8,.8-2.6,2.6-.71,.71,.71,.71,2.83,2.83,.71,.71,.71-.71,2.6-2.6,.81-.81-.9-.69c-.45-.35-.93-.77-1.4-1.24-.44-.44-.85-.9-1.25-1.41l-.7-.88h0Z"/>
</svg>