<?xml version="1.0" encoding="UTF-8"?>
<svg id="_3_색깔" data-name="3 색깔" xmlns="http://www.w3.org/2000/svg" width="14px" height="14px" viewBox="0 0 40 40">
  <defs>
    <style>
      .cls-1 {
        fill: none;
        stroke: #000;
        stroke-miterlimit: 10;
      }
    </style>
  </defs>
  <path id="_2_3_4번" data-name="2,3,4번" class="cls-1" d="M29.67,23.57v10.8c0,1.7-1.38,3.09-3.09,3.09H5.76c-1.7,0-3.09-1.38-3.09-3.09V13.54c0-1.7,1.38-3.09,3.09-3.09h10.8v4.67c.12-.02,.25-.04,.39-.04,1.06,0,1.93,.86,1.93,1.93s-.86,1.93-1.93,1.93c-.13,0-.26-.02-.39-.04v4.67h4.67c-.02,.12-.04,.25-.04,.39,0,1.06,.86,1.93,1.93,1.93s1.93-.86,1.93-1.93c0-.13-.02-.26-.04-.39h4.67Z"/>
  <path id="_1번" data-name="1번" class="cls-1" d="M35.9,17.42l-4.62-.65c0,.13,0,.26-.02,.39-.15,1.05-1.12,1.79-2.18,1.64s-1.79-1.12-1.64-2.18c.02-.13,.05-.26,.09-.38l-4.62-.65,.65-4.62c.12,.04,.25,.07,.38,.09,1.05,.15,2.03-.59,2.18-1.64s-.59-2.03-1.64-2.18c-.13-.02-.26-.02-.39-.02l.65-4.62,9.93,1.4c1.69,.24,2.86,1.8,2.63,3.49l-1.4,9.93Z"/>
</svg>