<?xml version="1.0" encoding="UTF-8"?>
<svg id="_5_마음" data-name="5 마음" xmlns="http://www.w3.org/2000/svg" width="14px" height="14px" viewBox="0 0 40 40">
  <defs>
    <style>
      .cls-1 {
        fill: none;
        stroke: #000;
        stroke-miterlimit: 10;
      }
    </style>
  </defs>
  <path d="M37,9V31H3V9H37m0-1H3c-.55,0-1,.45-1,1V31c0,.55,.45,1,1,1H37c.55,0,1-.45,1-1V9c0-.55-.45-1-1-1h0Z"/>
  <path d="M21.95,17.67h0c.18,0,.45,.04,.7,.25,.23,.18,.36,.46,.36,.75,0,.23-.08,.45-.24,.63l-.82,.96-1.94,2.24-1.94-2.24-.83-.95c-.17-.2-.25-.45-.23-.7,.02-.26,.15-.5,.37-.68,.25-.2,.52-.24,.7-.24,.32,0,.62,.13,.82,.36l.35,.41,.76,.89,.76-.88,.36-.41c.2-.23,.5-.37,.82-.37m0-1c-.59,0-1.17,.24-1.58,.71l-.36,.42-.35-.41c-.4-.47-.99-.71-1.58-.71-.46,0-.94,.15-1.33,.47-.88,.71-.99,1.97-.26,2.81l.83,.95,2.69,3.11,2.69-3.11,.82-.96c.33-.37,.48-.83,.48-1.28,0-.57-.25-1.14-.73-1.53-.39-.32-.86-.47-1.33-.47h0Z"/>
  <polyline class="cls-1" points="3 9 8 20 3 31"/>
  <polyline class="cls-1" points="37 9 32 20 37 31"/>
  <line class="cls-1" x1="8" y1="20" x2="17" y2="20"/>
  <line class="cls-1" x1="23" y1="20" x2="32" y2="20"/>
</svg>