<?xml version="1.0" encoding="UTF-8"?>
<svg id="_6_이해" data-name="6 이해" xmlns="http://www.w3.org/2000/svg" width="14px" height="14px" viewBox="0 0 40 40">
  <defs>
    <style>
      .cls-1 {
        stroke-linecap: round;
      }

      .cls-1, .cls-2 {
        fill: none;
        stroke: #000;
        stroke-miterlimit: 10;
      }
    </style>
  </defs>
  <path class="cls-2" d="M25.54,24.35l-2.75,7.57c-.19,.52-.76,.79-1.28,.6L5.44,26.67c-.52-.19-.79-.76-.6-1.28L12.87,3.35c.19-.52,.76-.79,1.28-.6l16.06,5.84c.52,.19,.79,.76,.6,1.28l-1.63,4.47"/>
  <g>
    <line class="cls-1" x1="16.56" y1="2.5" x2="15.47" y2="5.49"/>
    <line class="cls-1" x1="18.55" y1="3.23" x2="17.47" y2="6.22"/>
    <line class="cls-1" x1="20.55" y1="3.95" x2="19.46" y2="6.94"/>
    <line class="cls-1" x1="22.54" y1="4.68" x2="21.45" y2="7.67"/>
    <line class="cls-1" x1="24.53" y1="5.41" x2="23.44" y2="8.39"/>
    <line class="cls-1" x1="26.53" y1="6.13" x2="25.44" y2="9.12"/>
    <line class="cls-1" x1="28.52" y1="6.86" x2="27.43" y2="9.85"/>
  </g>
  <path class="cls-2" d="M28.39,22.59c-1.82,.66-3.83-.27-4.48-2.08-.66-1.8,.28-3.8,2.1-4.46,1.81-.67,3.82,.26,4.47,2.07,.66,1.8-.28,3.8-2.09,4.47Z"/>
  <path d="M31.7,27.79l3.02,8.29-2.51,.91-3.02-8.29,2.51-.91m0-1c-.11,0-.23,.02-.34,.06l-2.51,.91c-.52,.19-.79,.76-.6,1.28l3.02,8.29c.15,.41,.53,.66,.94,.66,.11,0,.23-.02,.34-.06l2.51-.91c.52-.19,.79-.76,.6-1.28l-3.02-8.29c-.15-.41-.53-.66-.94-.66h0Z"/>
  <path d="M29.91,25.15l.64,1.75-1.04,.38-.64-1.75,1.04-.38m.6-1.28l-2.92,1.06,1.32,3.63,2.92-1.06-1.32-3.63h0Z"/>
  <ellipse class="cls-2" cx="27.19" cy="19.31" rx="5.83" ry="5.8" transform="translate(-4.97 10.46) rotate(-20)"/>
</svg>