<svg width="current" height="current" viewBox="0 0 24 24" fill="currentColor" xmlns="http://www.w3.org/2000/svg">
<path d="M10 11C12.2091 11 14 9.20914 14 7C14 4.79086 12.2091 3 10 3C7.79086 3 6 4.79086 6 7C6 9.20914 7.79086 11 10 11Z" fill="#B95938"/>
<path d="M17.5815 16.479C17.8642 16.8074 18 17.2333 18 17.6666V19C18 20.1046 17.1046 21 16 21H4C2.89543 21 2 20.1046 2 19V17.6666C2 17.2333 2.13576 16.8074 2.41847 16.479C4.25235 14.3488 6.96866 13 10 13C13.0313 13 15.7477 14.3488 17.5815 16.479Z" fill="current"/>
<path d="M20 13C19.5858 13 19.25 12.6642 19.25 12.25V9.75H16.75C16.3358 9.75 16 9.41422 16 9C16 8.58579 16.3358 8.25 16.75 8.25H19.25V5.75C19.25 5.33579 19.5858 5 20 5C20.4142 5 20.75 5.33579 20.75 5.75V8.25H23.25C23.6642 8.25 24 8.58579 24 9C24 9.41422 23.6642 9.75 23.25 9.75H20.75V12.25C20.75 12.6642 20.4142 13 20 13Z" fill="current"/>
</svg>
