<svg width="current" height="current" viewBox="0 0 32 32" fill="currentColor" xmlns="http://www.w3.org/2000/svg">
<path d="M6.66667 4C5.19391 4 4 5.19391 4 6.66667V12C4 13.4728 5.19391 14.6667 6.66667 14.6667H12C13.4728 14.6667 14.6667 13.4728 14.6667 12V6.66667C14.6667 5.19391 13.4728 4 12 4H6.66667Z" fill="current"/>
<path d="M4 20C4 18.5272 5.19391 17.3333 6.66667 17.3333H12C13.4728 17.3333 14.6667 18.5272 14.6667 20V25.3333C14.6667 26.8061 13.4728 28 12 28H6.66667C5.19391 28 4 26.8061 4 25.3333V20Z" fill="current"/>
<path d="M17.3333 6.66667C17.3333 5.19391 18.5272 4 20 4H25.3333C26.8061 4 28 5.19391 28 6.66667V12C28 13.4728 26.8061 14.6667 25.3333 14.6667H20C18.5272 14.6667 17.3333 13.4728 17.3333 12V6.66667Z" fill="current"/>
<path d="M22.6667 28C22.1144 28 21.6667 27.5523 21.6667 27V23.6667H18.3333C17.781 23.6667 17.3333 23.219 17.3333 22.6667C17.3333 22.1144 17.781 21.6667 18.3333 21.6667H21.6667V18.3333C21.6667 17.781 22.1144 17.3333 22.6667 17.3333C23.219 17.3333 23.6667 17.781 23.6667 18.3333V21.6667H27C27.5523 21.6667 28 22.1144 28 22.6667C28 23.219 27.5523 23.6667 27 23.6667H23.6667V27C23.6667 27.5523 23.219 28 22.6667 28Z" fill="current"/>
</svg>
