<svg width="current" height="current" viewBox="0 0 24 24" fill="currentColor" xmlns="http://www.w3.org/2000/svg">
<path d="M10.955 18.8941L4.81066 12.7499H21.25C21.6642 12.7499 22 12.4141 22 11.9999C22 11.5856 21.6642 11.2499 21.25 11.2499H4.81066L10.955 5.10553C11.2479 4.81264 11.2479 4.33776 10.955 4.04487C10.9184 4.00826 10.8789 3.97622 10.8373 3.94876C10.5462 3.75655 10.1506 3.78859 9.89429 4.04487L2.46967 11.4695C2.17678 11.7624 2.17678 12.2373 2.46967 12.5302L9.89429 19.9548C9.9309 19.9914 9.97036 20.0235 10.012 20.0509C10.3031 20.2431 10.6987 20.2111 10.955 19.9548C11.2479 19.6619 11.2479 19.187 10.955 18.8941Z" fill="current"/>
</svg>
