<svg width="current" height="current" viewBox="0 0 21 20" fill="currentColor" xmlns="http://www.w3.org/2000/svg">
<path d="M9.252 7.81066L7.06255 10.0002C6.76966 10.293 6.29479 10.293 6.00189 10.0002C5.709 9.70727 5.709 9.23237 6.00189 8.93947L9.4717 5.46967C9.7646 5.17678 10.2395 5.17678 10.5323 5.46967L14.0019 8.93927C14.2948 9.23207 14.2948 9.70697 14.0019 9.99987C13.709 10.2928 13.2341 10.2928 12.9412 9.99987L10.752 7.81066V14.25C10.752 14.6642 10.4162 15 10.002 15C9.5878 15 9.252 14.6642 9.252 14.25V7.81066Z" fill="current"/>
<path fill-rule="evenodd" clip-rule="evenodd" d="M10.002 0C15.5248 0 20.002 4.47716 20.002 9.99996C20.002 15.5229 15.5248 20 10.002 20C4.47911 20 0.00195312 15.5229 0.00195312 9.99996C0.00195312 4.47716 4.47911 0 10.002 0ZM1.50195 9.99996C1.50195 5.30558 5.30753 1.5 10.002 1.5C14.6964 1.5 18.502 5.30558 18.502 9.99996C18.502 14.6945 14.6964 18.5 10.002 18.5C5.30753 18.5 1.50195 14.6945 1.50195 9.99996Z" fill="current"/>
</svg>
