<svg width="current" height="current" viewBox="0 0 32 32" fill="currentColor" xmlns="http://www.w3.org/2000/svg">
<path fill-rule="evenodd" clip-rule="evenodd" d="M16 2.66602C10.8453 2.66602 6.66667 6.8447 6.66667 11.9993V15.9472C6.66667 17.688 5.97513 19.3576 4.74419 20.5886C4.26769 21.0649 4 21.7112 4 22.3851V23.5491C4 24.5341 4.79855 25.3327 5.78361 25.3327H11.4173C11.4173 25.808 11.4327 26.7144 11.9108 27.5824C12.7021 29.0188 14.2351 29.9993 16 29.9993C17.7648 29.9993 19.2979 29.0188 20.0892 27.5824C20.5672 26.7144 20.5827 25.808 20.5827 25.3327H26.2164C27.2015 25.3327 28 24.5341 28 23.5491V22.3851C28 21.7112 27.7323 21.0649 27.2559 20.5886C26.0249 19.3576 25.3333 17.688 25.3333 15.9472V11.9993C25.3333 6.8447 21.1547 2.66602 16 2.66602ZM18.5827 25.3327C18.5827 25.7754 18.5509 26.2297 18.3373 26.6175C18.1883 26.888 17.9937 27.1299 17.7639 27.3327C17.2937 27.7476 16.6763 27.9993 16 27.9993C15.3237 27.9993 14.7061 27.7476 14.2361 27.3327C14.0063 27.1299 13.8116 26.888 13.6627 26.6175C13.4491 26.2297 13.4173 25.7754 13.4173 25.3327H18.5827Z" fill="current"/>
</svg>
