<svg width="18" height="21" viewBox="0 0 18 21" fill="currentColor" xmlns="http://www.w3.org/2000/svg">
<path fill-rule="evenodd" clip-rule="evenodd" d="M5.56299 17H1.33771C0.59891 17 0 16.4011 0 15.6623V14.7893C0 14.2839 0.20077 13.7992 0.55814 13.4419C1.48135 12.5187 2 11.2665 2 9.9609V7C2 3.13401 5.13401 0 9 0C12.866 0 16 3.13401 16 7V9.9609C16 11.2665 16.5187 12.5187 17.4419 13.4419C17.7992 13.7992 18 14.2839 18 14.7893V15.6623C18 16.4011 17.4011 17 16.6623 17H12.437C12.437 17.3565 12.4254 18.0363 12.0669 18.6873C11.4734 19.7646 10.3236 20.5 9 20.5C7.6763 20.5 6.52655 19.7646 5.93311 18.6873C5.57454 18.0363 5.56299 17.3565 5.56299 17ZM16.3812 14.5025C16.4573 14.5786 16.5 14.6818 16.5 14.7893V15.5H1.5V14.7893C1.5 14.6818 1.54273 14.5786 1.6188 14.5025C2.82331 13.298 3.5 11.6643 3.5 9.9609V7C3.5 3.96243 5.96244 1.5 9 1.5C12.0376 1.5 14.5 3.96243 14.5 7V9.9609C14.5 11.6643 15.1767 13.298 16.3812 14.5025ZM10.937 17H7.063C7.063 17.332 7.0868 17.6728 7.247 17.9636C7.3587 18.1665 7.5047 18.3479 7.6771 18.5C8.0296 18.8112 8.4928 19 9 19C9.5072 19 9.9703 18.8112 10.3229 18.5C10.4953 18.3479 10.6412 18.1665 10.753 17.9636C10.9132 17.6728 10.937 17.332 10.937 17Z" fill="current"/>
</svg>
