<svg width="current" height="current" viewBox="0 0 24 24" fill="currentColor" xmlns="http://www.w3.org/2000/svg">
<path fill-rule="evenodd" clip-rule="evenodd" d="M12 2C8.13401 2 5 5.13401 5 9V11.9609C5 13.2665 4.48135 14.5187 3.55814 15.4419C3.20077 15.7992 3 16.2839 3 16.7893V17.6623C3 18.4011 3.59891 19 4.33771 19H8.56299C8.56299 19.3565 8.57454 20.0363 8.93311 20.6873C9.52655 21.7646 10.6763 22.5 12 22.5C13.3236 22.5 14.4734 21.7646 15.0669 20.6873C15.4254 20.0363 15.437 19.3565 15.437 19H19.6623C20.4011 19 21 18.4011 21 17.6623V16.7893C21 16.2839 20.7992 15.7992 20.4419 15.4419C19.5187 14.5187 19 13.2665 19 11.9609V9C19 5.13401 15.866 2 12 2ZM13.937 19C13.937 19.332 13.9132 19.6728 13.753 19.9636C13.6412 20.1665 13.4953 20.3479 13.3229 20.5C12.9703 20.8112 12.5072 21 12 21C11.4928 21 11.0296 20.8112 10.6771 20.5C10.5047 20.3479 10.3587 20.1665 10.247 19.9636C10.0868 19.6728 10.063 19.332 10.063 19H13.937Z" fill="current"/>
</svg>
