<svg width="current" height="current" viewBox="0 0 24 24" fill="currentColor" xmlns="http://www.w3.org/2000/svg">
<path fill-rule="evenodd" clip-rule="evenodd" d="M16.5 5V3.5C16.5 2.39543 15.6046 1.5 14.5 1.5H9.5C8.39543 1.5 7.5 2.39543 7.5 3.5V5H2.75C2.33579 5 2 5.33579 2 5.75C2 6.16421 2.33579 6.5 2.75 6.5H4.08824L4.88926 20.1174C4.95145 21.1746 5.82686 22 6.88581 22H17.1142C18.1731 22 19.0486 21.1746 19.1107 20.1174L19.9118 6.5H21.25C21.6642 6.5 22 6.16421 22 5.75C22 5.33579 21.6642 5 21.25 5H16.5ZM14.5 3H9.5C9.22386 3 9 3.22386 9 3.5V5H15V3.5C15 3.22386 14.7761 3 14.5 3ZM10.0607 10.5C9.76777 10.2071 9.2929 10.2071 9 10.5C8.70711 10.7929 8.70711 11.2678 9 11.5607L10.9393 13.5L9 15.4394C8.70711 15.7322 8.70711 16.2071 9 16.5C9.29289 16.7929 9.76777 16.7929 10.0607 16.5L12 14.5607L13.9393 16.5C14.2322 16.7929 14.7071 16.7929 15 16.5C15.2929 16.2071 15.2929 15.7322 15 15.4394L13.0607 13.5L15 11.5607C15.2929 11.2678 15.2929 10.7929 15 10.5C14.7071 10.2071 14.2322 10.2071 13.9393 10.5L12 12.4393L10.0607 10.5Z" fill="current"/>
</svg>
