<svg width="current" height="current" viewBox="0 0 24 24" fill="currentColor" xmlns="http://www.w3.org/2000/svg">
<path d="M10.0607 10.5001C9.76775 10.2072 9.29288 10.2072 8.99999 10.5001C8.70709 10.7929 8.70709 11.2678 8.99999 11.5607L10.9393 13.5001L9 15.4394C8.7071 15.7323 8.7071 16.2072 9 16.5001C9.29289 16.793 9.76776 16.793 10.0607 16.5001L12 14.5607L13.9393 16.5001C14.2322 16.793 14.7071 16.793 15 16.5001C15.2929 16.2072 15.2929 15.7323 15 15.4394L13.0607 13.5001L15 11.5607C15.2929 11.2678 15.2929 10.7929 15 10.5001C14.7071 10.2072 14.2322 10.2072 13.9393 10.5001L12 12.4394L10.0607 10.5001Z" fill="current"/>
<path fill-rule="evenodd" clip-rule="evenodd" d="M16.5 5V3.5C16.5 2.39543 15.6046 1.5 14.5 1.5H9.5C8.39543 1.5 7.5 2.39543 7.5 3.5V5H2.75C2.33579 5 2 5.33579 2 5.75C2 6.16421 2.33579 6.5 2.75 6.5H4.08824L4.88926 20.1174C4.95145 21.1746 5.82686 22 6.88581 22H17.1142C18.1731 22 19.0486 21.1746 19.1107 20.1174L19.9118 6.5H21.25C21.6642 6.5 22 6.16421 22 5.75C22 5.33579 21.6642 5 21.25 5H16.5ZM14.5 3H9.5C9.22386 3 9 3.22386 9 3.5V5H15V3.5C15 3.22386 14.7761 3 14.5 3ZM18.4092 6.5H5.59083L6.38667 20.0294C6.40222 20.2936 6.62107 20.5 6.88581 20.5H17.1142C17.3789 20.5 17.5978 20.2936 17.6133 20.0294L18.4092 6.5Z" fill="current"/>
</svg>
