<svg width="current" height="current" viewBox="0 0 24 24" fill="currentColor" xmlns="http://www.w3.org/2000/svg">
<path d="M11.25 6.15625C11.25 4.98765 10.2653 4 9 4H3.5C2.39543 4 1.5 4.89543 1.5 6V18C1.5 19.1046 2.39543 20 3.5 20H9C9.8912 20 10.6614 20.5181 11.0257 21.2696C11.2154 21.6608 11.5653 22 12 22C12.4347 22 12.7846 21.6608 12.9743 21.2696C13.3386 20.5181 14.1088 20 15 20H20.5C21.6046 20 22.5 19.1046 22.5 18V6C22.5 4.89543 21.6046 4 20.5 4H15C13.7347 4 12.75 4.98765 12.75 6.15625V17.75C12.75 18.1642 12.4142 18.5 12 18.5C11.5858 18.5 11.25 18.1642 11.25 17.75V6.15625Z" fill="current"/>
</svg>
