<svg width="24" height="24" viewBox="0 0 24 24" fill="none" xmlns="http://www.w3.org/2000/svg">
<path fill-rule="evenodd" clip-rule="evenodd" d="M18.5 22.0029L12 18.25L5.50002 22.0029C4.83335 22.3878 4 21.9067 4 21.1369V4C4 2.89543 4.89543 2 6 2H18C19.1046 2 20 2.89543 20 4V21.1369C20 21.9067 19.1667 22.3878 18.5 22.0029ZM12.75 16.951C12.2859 16.683 11.7141 16.683 11.25 16.951L5.5 20.2709V4C5.5 3.72386 5.72386 3.5 6 3.5H18C18.2761 3.5 18.5 3.72386 18.5 4V20.2709L12.75 16.951Z" fill="#FF924C"/>
</svg>
