<svg width="18" height="10" viewBox="0 0 18 10" fill="currentColor" xmlns="http://www.w3.org/2000/svg">
<path d="M2.10748 0.544866L9.0018 7.43916L15.8961 0.544866C16.0791 0.361806 16.3333 0.293157 16.5696 0.338927C16.7115 0.366387 16.8469 0.435026 16.9567 0.544866C16.9933 0.581476 17.0254 0.620936 17.0528 0.662516C17.245 0.953636 17.213 1.34925 16.9567 1.60553L9.5321 9.03016C9.3914 9.17076 9.2007 9.24986 9.0018 9.24986C8.8029 9.24986 8.6121 9.17076 8.4714 9.03016L1.04682 1.60553C0.753926 1.31264 0.753926 0.837756 1.04682 0.544866C1.33971 0.251976 1.81459 0.251976 2.10748 0.544866Z" fill="current"/>
</svg>
