<svg width="17" height="10" viewBox="0 0 17 10" fill="none" xmlns="http://www.w3.org/2000/svg">
<path d="M15.107 9.4549L8.50001 2.56066L1.893 9.4549C1.88861 9.4595 1.88419 9.464 1.87971 9.4685C1.59813 9.7478 1.15283 9.7433 0.876537 9.4549C0.872148 9.4504 0.867826 9.4457 0.863581 9.4411C0.595909 9.1472 0.600231 8.6826 0.876537 8.3943L7.99181 0.96967C8.12655 0.82902 8.3094 0.75 8.50001 0.75C8.69062 0.75 8.87347 0.82902 9.00831 0.96967L16.1236 8.3943C16.4042 8.6872 16.4042 9.162 16.1236 9.4549C15.8429 9.7478 15.3877 9.7478 15.107 9.4549Z" fill="white"/>
</svg>
