<svg width="current" height="current" viewBox="0 0 24 24" fill="currentColor" xmlns="http://www.w3.org/2000/svg">
<path d="M9 17C9.15533 17 9.30974 16.9965 9.46314 16.9896C9.46284 16.9896 9.46344 16.9896 9.46314 16.9896C9.47515 16.989 9.48805 16.9884 9.50004 16.9879C14.238 16.7572 18 13.2691 18 9C18 4.58172 13.9706 1 9 1C4.02944 1 0 4.58172 0 9C0 10.5545 0.498805 12.0055 1.36191 13.2333L0.494498 16.2693C0.278969 17.0236 0.976391 17.721 1.73074 17.5055L5.58545 16.4042C6.06745 16.58 6.5704 16.7197 7.09006 16.8195C7.70563 16.9377 8.34463 17 9 17Z" fill="current"/>
<path d="M24 13C24 9.8202 21.9129 7.0737 18.89 5.78381C19.2839 6.7802 19.5 7.86091 19.5 9C19.5 14.4079 14.628 18.5 9.00001 18.5C8.81586 18.5 8.63273 18.4957 8.45073 18.4872C10.0918 20.0343 12.419 21 15 21C16.2086 21 17.3616 20.7882 18.4146 20.4042L22.2693 21.5055C23.0236 21.721 23.721 21.0236 23.5055 20.2693L22.6381 17.2333C23.5012 16.0055 24 14.5545 24 13Z" fill="current"/>
</svg>
