<svg width="10" height="10" viewBox="0 0 10 10" fill="none" xmlns="http://www.w3.org/2000/svg">
<path d="M7.25005 3.49999C7.3965 3.64643 7.3965 3.88387 7.25005 4.0303L4.7652 6.51515C4.61875 6.6616 4.38135 6.6616 4.2349 6.51515L3.00005 5.2803C2.8536 5.13385 2.8536 4.89645 3.00005 4.75C3.1465 4.60355 3.38393 4.60355 3.53038 4.75L4.50005 5.71965L6.7197 3.49999C6.86615 3.35354 7.1036 3.35354 7.25005 3.49999Z" fill="white"/>
<path fill-rule="evenodd" clip-rule="evenodd" d="M10 5C10 7.7614 7.7614 10 5 10C2.23857 10 0 7.7614 0 5C0 2.23857 2.23857 0 5 0C7.7614 0 10 2.23857 10 5ZM9.25 5C9.25 7.3472 7.3472 9.25 5 9.25C2.65279 9.25 0.75 7.3472 0.75 5C0.75 2.65279 2.65279 0.75 5 0.75C7.3472 0.75 9.25 2.65279 9.25 5Z" fill="white"/>
</svg>
