<svg width="32" height="32" viewBox="0 0 32 32" fill="none" xmlns="http://www.w3.org/2000/svg">
<path d="M23.0732 6.5719C23.7241 5.92103 24.7793 5.92102 25.4303 6.5719C26.0811 7.22276 26.0811 8.27804 25.4303 8.92891L18.3592 15.9999L25.4303 23.071C26.0811 23.7219 26.0811 24.7773 25.4303 25.4281C24.7793 26.079 23.7241 26.079 23.0732 25.4281L16.0021 18.357L8.93112 25.4281C8.28024 26.0789 7.22496 26.0789 6.5741 25.4281C5.92322 24.7771 5.92322 23.7218 6.5741 23.071L13.6451 15.9999L6.5741 8.92898C5.92323 8.27811 5.92323 7.22283 6.5741 6.57196C7.22498 5.92108 8.28024 5.92109 8.93112 6.57196L16.0021 13.643L23.0732 6.5719Z" fill="black"/>
</svg>
