<svg width="current" height="current" viewBox="0 0 24 24" fill="currentColor" xmlns="http://www.w3.org/2000/svg">
<path d="M5 3C3.89543 3 3 3.89543 3 5V9C3 10.1046 3.89543 11 5 11H9C10.1046 11 11 10.1046 11 9V5C11 3.89543 10.1046 3 9 3H5Z" fill="current"/>
<path d="M3 15C3 13.8954 3.89543 13 5 13H9C10.1046 13 11 13.8954 11 15V19C11 20.1046 10.1046 21 9 21H5C3.89543 21 3 20.1046 3 19V15Z" fill="current"/>
<path d="M13 5C13 3.89543 13.8954 3 15 3H19C20.1046 3 21 3.89543 21 5V9C21 10.1046 20.1046 11 19 11H15C13.8954 11 13 10.1046 13 9V5Z" fill="current"/>
<path d="M17 21C16.5858 21 16.25 20.6642 16.25 20.25V17.75H13.75C13.3358 17.75 13 17.4142 13 17C13 16.5858 13.3358 16.25 13.75 16.25H16.25V13.75C16.25 13.3358 16.5858 13 17 13C17.4142 13 17.75 13.3358 17.75 13.75V16.25H20.25C20.6642 16.25 21 16.5858 21 17C21 17.4142 20.6642 17.75 20.25 17.75H17.75V20.25C17.75 20.6642 17.4142 21 17 21Z" fill="current"/>
</svg>
