<svg width="current" height="current" viewBox="0 0 24 24" fill="currentColor" xmlns="http://www.w3.org/2000/svg">
<path fill-rule="evenodd" clip-rule="evenodd" d="M3 5C3 3.89543 3.89543 3 5 3H9C10.1046 3 11 3.89543 11 5V9C11 10.1046 10.1046 11 9 11H5C3.89543 11 3 10.1046 3 9V5ZM4.5 5C4.5 4.72386 4.72386 4.5 5 4.5H9C9.27614 4.5 9.5 4.72386 9.5 5V9C9.5 9.27614 9.27614 9.5 9 9.5H5C4.72386 9.5 4.5 9.27614 4.5 9V5Z" fill="current"/>
<path fill-rule="evenodd" clip-rule="evenodd" d="M5 13C3.89543 13 3 13.8954 3 15V19C3 20.1046 3.89543 21 5 21H9C10.1046 21 11 20.1046 11 19V15C11 13.8954 10.1046 13 9 13H5ZM9.5 15C9.5 14.7239 9.27614 14.5 9 14.5H5C4.72386 14.5 4.5 14.7239 4.5 15V19C4.5 19.2761 4.72386 19.5 5 19.5H9C9.27614 19.5 9.5 19.2761 9.5 19V15Z" fill="current"/>
<path fill-rule="evenodd" clip-rule="evenodd" d="M15 3C13.8954 3 13 3.89543 13 5V9C13 10.1046 13.8954 11 15 11H19C20.1046 11 21 10.1046 21 9V5C21 3.89543 20.1046 3 19 3H15ZM19.5 5C19.5 4.72386 19.2761 4.5 19 4.5H15C14.7239 4.5 14.5 4.72386 14.5 5V9C14.5 9.27614 14.7239 9.5 15 9.5H19C19.2761 9.5 19.5 9.27614 19.5 9V5Z" fill="current"/>
<path d="M17 21C16.5858 21 16.25 20.6642 16.25 20.25V17.75H13.75C13.3358 17.75 13 17.4142 13 17C13 16.5858 13.3358 16.25 13.75 16.25H16.25V13.75C16.25 13.3358 16.5858 13 17 13C17.4142 13 17.75 13.3358 17.75 13.75V16.25H20.25C20.6642 16.25 21 16.5858 21 17C21 17.4142 20.6642 17.75 20.25 17.75H17.75V20.25C17.75 20.6642 17.4142 21 17 21Z" fill="current"/>
</svg>
