<svg width="current" height="current" viewBox="0 0 24 24" fill="currentColor" xmlns="http://www.w3.org/2000/svg">
<path d="M20.25 21.0001C20.1515 21.0003 20.0539 20.9809 19.9629 20.9432C19.8719 20.9054 19.7893 20.8501 19.7198 20.7803L3.2198 4.28025C3.08509 4.13845 3.01109 3.94964 3.0136 3.75407C3.0161 3.5585 3.0949 3.37164 3.23321 3.23334C3.37151 3.09504 3.55836 3.01624 3.75393 3.01373C3.94951 3.01123 4.13832 3.08522 4.28011 3.21994L20.7801 19.7199C20.8849 19.8248 20.9563 19.9584 20.9852 20.1039C21.0141 20.2493 20.9993 20.4001 20.9425 20.5371C20.8858 20.6741 20.7897 20.7912 20.6665 20.8736C20.5432 20.956 20.3982 21 20.25 21.0001ZM11.984 18.0001C10.0392 18.0001 8.16371 17.4245 6.40965 16.2892C4.81261 15.2579 3.37496 13.7809 2.25183 12.0235V12.0198C3.18652 10.6806 4.21027 9.54806 5.30996 8.63494C5.31991 8.62662 5.32802 8.61633 5.33379 8.60472C5.33956 8.59311 5.34285 8.58042 5.34347 8.56747C5.34409 8.55452 5.34201 8.54158 5.33737 8.52947C5.33273 8.51736 5.32563 8.50635 5.31652 8.49713L4.38277 7.56478C4.36618 7.54805 4.34389 7.53818 4.32035 7.53714C4.29682 7.5361 4.27375 7.54396 4.25574 7.55916C3.08761 8.54353 2.0034 9.75103 1.01761 11.1648C0.848014 11.4082 0.754608 11.6966 0.749266 11.9932C0.743924 12.2898 0.826888 12.5813 0.987615 12.8307C2.22558 14.7681 3.81886 16.3998 5.59449 17.5487C7.59371 18.8438 9.74527 19.5001 11.984 19.5001C13.1924 19.4963 14.3923 19.2972 15.5371 18.9104C15.5522 18.9053 15.5658 18.8964 15.5765 18.8846C15.5872 18.8728 15.5947 18.8584 15.5983 18.8429C15.602 18.8273 15.6015 18.8111 15.5972 18.7958C15.5928 18.7805 15.5845 18.7665 15.5732 18.7553L14.5617 17.7437C14.5384 17.721 14.5096 17.7047 14.4781 17.6965C14.4466 17.6883 14.4136 17.6884 14.3821 17.6968C13.5987 17.8985 12.793 18.0004 11.984 18.0001ZM23.0081 11.1845C21.7678 9.26634 20.1586 7.63697 18.3548 6.47213C16.3593 5.18213 14.1562 4.50009 11.984 4.50009C10.7884 4.50222 9.60169 4.70552 8.47355 5.1015C8.45852 5.10673 8.44507 5.1157 8.43446 5.12757C8.42386 5.13943 8.41645 5.1538 8.41293 5.16933C8.40941 5.18485 8.40991 5.20101 8.41436 5.21629C8.41882 5.23157 8.42709 5.24546 8.4384 5.25666L9.44855 6.26681C9.47207 6.28993 9.50127 6.30644 9.5332 6.31467C9.56513 6.32289 9.59867 6.32256 9.63043 6.31369C10.3978 6.10612 11.1891 6.00067 11.984 6.00009C13.8914 6.00009 15.7612 6.58275 17.5411 7.73447C19.1681 8.78447 20.6226 10.2601 21.7486 12.0001L21.7498 12.0038L21.7486 12.0076C20.9312 13.2943 19.917 14.4447 18.7429 15.4168C18.7329 15.4251 18.7247 15.4354 18.7188 15.447C18.7129 15.4587 18.7096 15.4714 18.7089 15.4844C18.7083 15.4974 18.7103 15.5104 18.715 15.5226C18.7196 15.5348 18.7267 15.5458 18.7359 15.5551L19.6687 16.4874C19.6852 16.5041 19.7074 16.514 19.7308 16.5151C19.7542 16.5162 19.7772 16.5085 19.7953 16.4935C21.0487 15.4381 22.1337 14.1976 23.0128 12.8148C23.1682 12.5711 23.2503 12.2879 23.2495 11.9989C23.2486 11.7099 23.1649 11.4273 23.0081 11.1845Z" fill="current"/>
<path d="M12 7.50009C11.6629 7.49991 11.3269 7.53765 10.9982 7.61259C10.9816 7.61604 10.9663 7.62392 10.9538 7.6354C10.9413 7.64688 10.9322 7.66153 10.9274 7.67779C10.9226 7.69405 10.9223 7.7113 10.9265 7.72772C10.9307 7.74414 10.9393 7.75911 10.9514 7.77103L16.229 13.0473C16.2409 13.0593 16.2559 13.0679 16.2723 13.0721C16.2888 13.0764 16.306 13.0761 16.3223 13.0712C16.3385 13.0664 16.3532 13.0573 16.3646 13.0448C16.3761 13.0324 16.384 13.017 16.3875 13.0004C16.5377 12.3414 16.5376 11.6569 16.387 10.998C16.2365 10.339 15.9394 9.72237 15.5179 9.19394C15.0964 8.66551 14.5613 8.23883 13.9522 7.94559C13.3432 7.65235 12.6759 7.50008 12 7.50009ZM7.7709 10.9529C7.75897 10.9409 7.74401 10.9323 7.72759 10.928C7.71117 10.9238 7.69391 10.9241 7.67765 10.9289C7.6614 10.9338 7.64675 10.9429 7.63527 10.9554C7.62379 10.9678 7.6159 10.9832 7.61246 10.9998C7.44246 11.7424 7.46381 12.5161 7.6745 13.2483C7.88518 13.9804 8.27831 14.6471 8.81703 15.1858C9.35575 15.7246 10.0224 16.1177 10.7546 16.3284C11.4868 16.5391 12.2604 16.5604 13.0031 16.3904C13.0197 16.387 13.035 16.3791 13.0475 16.3676C13.06 16.3561 13.0691 16.3415 13.0739 16.3252C13.0787 16.309 13.079 16.2917 13.0748 16.2753C13.0706 16.2589 13.062 16.2439 13.05 16.232L7.7709 10.9529Z" fill="current"/>
</svg>
