<svg width="24" height="24" viewBox="0 0 24 24" fill="none" xmlns="http://www.w3.org/2000/svg">
<g clip-path="url(#clip0_56_1410)">
<path fill-rule="evenodd" clip-rule="evenodd" d="M3.51472 3.51472L2.10059 4.92886L4.4244 7.25267C2.91942 8.51338 1.73221 10.1421 1 12.0002C2.73 16.3902 7 19.5002 12 19.5002C13.3978 19.5002 14.7385 19.2571 15.9827 18.811L19.0711 21.8994L20.4854 20.4852L20.4853 20.4851L20.4852 20.4852L3.51472 3.51472ZM19.5758 16.7474C21.0807 15.4867 22.2678 13.8581 23 12.0002C21.27 7.61015 17 4.50015 12 4.50015C10.6023 4.50015 9.2617 4.74316 8.01765 5.18922L9.61715 6.78872C10.3835 6.59932 11.1822 6.50015 12 6.50015C15.79 6.50015 19.17 8.63015 20.82 12.0002C20.1734 13.3207 19.2627 14.4509 18.1655 15.3371L19.5758 16.7474ZM16.2648 13.4363C16.4173 12.9851 16.5 12.502 16.5 12.0002C16.5 9.52015 14.48 7.50015 12 7.50015C11.4981 7.50015 11.0151 7.58288 10.5638 7.7354L16.2648 13.4363ZM3.18 12.0002C3.82632 10.6801 4.73809 9.55029 5.83596 8.66424L7.73536 10.5636C7.58277 11.015 7.5 11.4982 7.5 12.0002C7.5 14.4802 9.52 16.5002 12 16.5002C12.502 16.5002 12.9851 16.4174 13.4365 16.2648L14.384 17.2123C13.6179 17.4012 12.8189 17.5002 12 17.5002C8.2 17.5002 4.83 15.3702 3.18 12.0002ZM11.6471 14.4754C10.5493 14.3201 9.68006 13.4508 9.52475 12.353L11.6471 14.4754Z" fill="#223047"/>
</g>
<defs>
<clipPath id="clip0_56_1410">
<rect width="24" height="24" fill="white"/>
</clipPath>
</defs>
</svg>
