<svg width="current" height="current" viewBox="0 0 24 24" fill="currentColor" xmlns="http://www.w3.org/2000/svg">
<path d="M14.001 14C14.001 14.4142 13.6652 14.75 13.251 14.75H8.75098C8.33676 14.75 8.00098 14.4142 8.00098 14C8.00098 13.5858 8.33676 13.25 8.75098 13.25H13.251C13.6652 13.25 14.001 13.5858 14.001 14Z" fill="current"/>
<path d="M16.001 10C16.001 10.4142 15.6652 10.75 15.251 10.75H8.75098C8.33676 10.75 8.00098 10.4142 8.00098 10C8.00098 9.58581 8.33676 9.25002 8.75098 9.25002H15.251C15.6652 9.25002 16.001 9.58581 16.001 10Z" fill="current"/>
<path fill-rule="evenodd" clip-rule="evenodd" d="M19.4152 6.41422C19.7903 6.78929 20.001 7.298 20.001 7.82843V20C20.001 21.1046 19.1056 22 18.001 22H6.00098C4.89641 22 4.00098 21.1046 4.00098 20V4C4.00098 2.89543 4.89641 2 6.00098 2H14.1726C14.703 2 15.2117 2.21071 15.5868 2.58579L19.4152 6.41422ZM18.501 7.82843V20C18.501 20.2762 18.2772 20.5 18.001 20.5H6.00098C5.72483 20.5 5.50098 20.2762 5.50098 20V4C5.50098 3.72386 5.72484 3.5 6.00098 3.5H14.1726C14.3052 3.5 14.4324 3.55268 14.5261 3.64645L18.3546 7.47488C18.4483 7.56865 18.501 7.69583 18.501 7.82843Z" fill="current"/>
</svg>
