<svg width="current" height="current" viewBox="0 0 24 24" fill="currentColor" xmlns="http://www.w3.org/2000/svg">
<path fill-rule="evenodd" clip-rule="evenodd" d="M20 7.82843C20 7.298 19.7893 6.78929 19.4142 6.41421L15.5858 2.58579C15.2107 2.21071 14.702 2 14.1716 2H6C4.89543 2 4 2.89543 4 4V20C4 21.1046 4.89543 22 6 22H18C19.1046 22 20 21.1046 20 20V7.82843ZM15.25 11.25C15.9404 11.25 16.5 10.6904 16.5 10C16.5 9.30965 15.9404 8.75 15.25 8.75H8.75C8.05965 8.75 7.5 9.30965 7.5 10C7.5 10.6904 8.05965 11.25 8.75 11.25H15.25ZM8.75 16.25C8.05965 16.25 7.5 15.6904 7.5 15C7.5 14.3096 8.05965 13.75 8.75 13.75H13.25C13.9404 13.75 14.5 14.3096 14.5 15C14.5 15.6904 13.9404 16.25 13.25 16.25H8.75Z" fill="current"/>
</svg>
