<svg width="current" height="current" viewBox="0 0 24 24" fill="currentColor" xmlns="http://www.w3.org/2000/svg">
<path fill-rule="evenodd" clip-rule="evenodd" d="M12 3.93204C11.251 2.87441 10.1163 2 8.46875 2C6.41494 2 4.75 3.67893 4.75 5.75C4.75 7.82107 6.41494 9.5 8.46875 9.5H4C2.89543 9.5 2 10.3954 2 11.5C2 12.6046 2.89543 13.5 4 13.5H10.75V9.5H13.25V13.5H20C21.1046 13.5 22 12.6046 22 11.5C22 10.3954 21.1046 9.5 20 9.5H15.5313C17.5851 9.5 19.25 7.82107 19.25 5.75C19.25 3.67893 17.5851 2 15.5313 2C13.8837 2 12.749 2.87441 12 3.93204ZM7.25 5.75C7.25 6.46012 7.81534 7 8.46875 7H10.6788C10.6626 6.93376 10.6428 6.85914 10.6184 6.77665C10.5048 6.39234 10.3302 5.96552 10.0962 5.58396C9.63109 4.82574 9.12643 4.5 8.46875 4.5C7.81534 4.5 7.25 5.03988 7.25 5.75ZM15.5313 7C16.1847 7 16.75 6.46012 16.75 5.75C16.75 5.03988 16.1847 4.5 15.5313 4.5C14.8736 4.5 14.3689 4.82574 13.9038 5.58396C13.6698 5.96552 13.4952 6.39234 13.3816 6.77665C13.3572 6.85914 13.3374 6.93376 13.3212 7H15.5313Z" fill="current"/>
<path d="M6 22C4.89543 22 4 21.1046 4 20V15.5H10.75V22H6Z" fill="current"/>
<path d="M20 20C20 21.1046 19.1046 22 18 22H13.25V15.5H20V20Z" fill="current"/>
</svg>
