<svg width="current" height="current" viewBox="0 0 24 24" fill="none" xmlns="http://www.w3.org/2000/svg">
<path fill-rule="evenodd" clip-rule="evenodd" d="M12 4.2321C11.3644 3.08711 10.2724 2 8.53125 2C6.71907 2 5.25 3.45507 5.25 5.25C5.25 5.89432 5.4393 6.49485 5.76582 7H4C2.89543 7 2 7.89543 2 9V11.5C2 12.6046 2.89543 13.5 4 13.5V20C4 21.1046 4.89543 22 6 22H18C19.1046 22 20 21.1046 20 20V13.5C21.1046 13.5 22 12.6046 22 11.5V9C22 7.89543 21.1046 7 20 7H18.2342C18.5607 6.49485 18.75 5.89432 18.75 5.25C18.75 3.45507 17.2809 2 15.4688 2C13.7276 2 12.6356 3.08711 12 4.2321ZM6.75 5.25C6.75 6.203 7.53393 7 8.53125 7H11.25V6.64286V6.64272C11.2499 6.63931 11.2474 6.57223 11.2236 6.43769C11.2007 6.30812 11.163 6.14405 11.107 5.95787C10.9938 5.5815 10.8182 5.15685 10.5753 4.76776C10.0934 3.99621 9.45394 3.5 8.53125 3.5C7.53393 3.5 6.75 4.297 6.75 5.25ZM12.75 8.5V12H20C20.2761 12 20.5 11.7761 20.5 11.5V9C20.5 8.72386 20.2761 8.5 20 8.5H12.75ZM11.25 8.5H4C3.72386 8.5 3.5 8.72386 3.5 9V11.5C3.5 11.7761 3.72386 12 4 12H11.25V8.5ZM17.25 5.25C17.25 6.203 16.4661 7 15.4688 7H12.75V6.64286V6.64272C12.7501 6.63931 12.7526 6.57223 12.7764 6.43769C12.7993 6.30812 12.837 6.14405 12.893 5.95787C13.0062 5.5815 13.1818 5.15685 13.4247 4.76776C13.9066 3.99621 14.5461 3.5 15.4688 3.5C16.4661 3.5 17.25 4.297 17.25 5.25ZM11.25 13.5H5.5V20C5.5 20.2761 5.72386 20.5 6 20.5H11.25V13.5ZM12.75 20.5H18C18.2761 20.5 18.5 20.2761 18.5 20V13.5H12.75V20.5Z" fill="current"/>
</svg>
