<svg width="24" height="24" viewBox="0 0 24 24" fill="none" xmlns="http://www.w3.org/2000/svg">
<path fill-rule="evenodd" clip-rule="evenodd" d="M20.4418 11C19.9469 6.77683 16.3561 3.5 12 3.5C7.64389 3.5 4.05313 6.77683 3.5582 11H6.5C7.60457 11 8.5 11.8954 8.5 13V17C8.5 18.1046 7.60457 19 6.5 19H4C2.89543 19 2 18.1046 2 17V12C2 6.47715 6.47715 2 12 2C17.5228 2 22 6.47715 22 12V19C22 21.2091 20.2091 23 18 23H12.75C12.3358 23 12 22.6642 12 22.25C12 21.8358 12.3358 21.5 12.75 21.5H18C19.3807 21.5 20.5 20.3807 20.5 19H17.5C16.3954 19 15.5 18.1046 15.5 17V13C15.5 11.8954 16.3954 11 17.5 11H20.4418ZM17.5 12.5H20.5V17.5H17.5C17.2239 17.5 17 17.2761 17 17V13C17 12.7239 17.2239 12.5 17.5 12.5ZM3.5 17C3.5 17.2761 3.72386 17.5 4 17.5H6.5C6.77614 17.5 7 17.2761 7 17V13C7 12.7239 6.77614 12.5 6.5 12.5H3.5V17Z" fill="#B2B2B2"/>
</svg>
