<svg width="current" height="current" viewBox="0 0 24 24" fill="currentColor" xmlns="http://www.w3.org/2000/svg">
<path d="M12 5.12092L11.8635 4.99203C10.7014 3.85493 9.14236 3.21475 7.5165 3.20703C5.92264 3.20703 4.39391 3.83947 3.2659 4.96551C2.13789 6.09155 1.50278 7.61918 1.5 9.21303C1.5 12.447 2.6865 13.9905 7.989 18.18L10.7737 20.3415C11.4953 20.9016 12.5047 20.9016 13.2263 20.3415L16.011 18.18C21.3135 13.9905 22.5 12.447 22.5 9.21303C22.4972 7.61918 21.8621 6.09155 20.7341 4.96551C19.6061 3.83947 18.0773 3.20703 16.4835 3.20703C14.8576 3.21475 13.2986 3.85493 12.1365 4.99203L12 5.12092Z" fill="current"/>
</svg>
