<svg width="11" height="9" viewBox="0 0 11 9" fill="none" xmlns="http://www.w3.org/2000/svg">
<path fill-rule="evenodd" clip-rule="evenodd" d="M7.49175 0C8.28865 0 9.05305 0.31622 9.61705 0.87924C10.1811 1.44226 10.4986 2.20608 10.5 3.003C10.5 4.61998 9.90675 5.39173 7.2555 7.48648L5.8938 8.54343C5.51495 8.83748 4.98505 8.83748 4.6062 8.54343L3.2445 7.48648C0.59325 5.39173 0 4.61998 0 3.003C0.00139 2.20608 0.318945 1.44226 0.88295 0.87924C1.44695 0.31622 2.21132 0 3.00825 0C3.82118 0.00386 4.6007 0.32395 5.18175 0.8925L5.25 0.95689L5.31825 0.8925C5.8993 0.32395 6.6788 0.00386 7.49175 0ZM4.9627 1.7542L4.97775 1.76858C5.13 1.91428 5.36995 1.91428 5.5222 1.76858L5.53735 1.75411C5.93255 1.37583 6.34245 0.983485 6.869 0.836995C7.0707 0.78087 7.2806 0.75117 7.4935 0.75C8.0911 0.75047 8.6642 0.9878 9.08715 1.41004C9.51035 1.8325 9.74875 2.40556 9.75 3.00351C9.74995 3.68728 9.6336 4.12028 9.26625 4.62328C8.85575 5.18543 8.12525 5.84333 6.7931 6.89603L5.43395 7.95093C5.3257 8.03498 5.1743 8.03498 5.06605 7.95093L3.70696 6.89603C2.37474 5.84338 1.64425 5.18543 1.23372 4.62328C0.866425 4.12033 0.750075 3.68738 0.75 3.00368C0.75121 2.40567 0.989575 1.83254 1.41282 1.41004C1.83579 0.9878 2.40887 0.75047 3.00647 0.75C3.21924 0.75117 3.429 0.78083 3.6306 0.83688C4.15732 0.983325 4.56735 1.37581 4.9627 1.7542Z" fill="black"/>
</svg>
