<svg width="current" height="current" viewBox="0 0 30 30" fill="currentColor" xmlns="http://www.w3.org/2000/svg">
<path fill-rule="evenodd" clip-rule="evenodd" d="M20.6044 4.00977C22.5966 4.00977 24.5076 4.80032 25.9176 6.20787C27.3276 7.61542 28.1215 9.52495 28.125 11.5173C28.125 15.5597 26.6419 17.4891 20.0137 22.726L16.6095 25.3683C15.6624 26.1035 14.3376 26.1035 13.3905 25.3683L9.98625 22.726C3.35813 17.4891 1.875 15.5597 1.875 11.5173C1.87847 9.52495 2.67236 7.61542 4.08237 6.20787C5.49239 4.80032 7.4033 4.00977 9.39562 4.00977C11.4279 4.01942 13.3767 4.81964 14.8294 6.24102L15 6.40199L15.1706 6.24102C16.6233 4.81964 18.572 4.01942 20.6044 4.00977ZM14.2817 8.39527L14.3194 8.43122C14.7 8.79547 15.2999 8.79547 15.6805 8.43122L15.7184 8.39504C16.7064 7.44934 17.7311 6.46848 19.0475 6.10225C19.5517 5.96194 20.0765 5.88769 20.6087 5.88477C22.1027 5.88594 23.5355 6.47927 24.5929 7.53485C25.6509 8.591 26.2469 10.0237 26.25 11.5185C26.2499 13.228 25.959 14.3105 25.0406 15.568C24.0144 16.9733 22.1881 18.6181 18.8577 21.2498L15.4599 23.8871C15.1892 24.0972 14.8108 24.0972 14.5401 23.8871L11.1424 21.2498C7.81185 18.6182 5.98562 16.9733 4.9593 15.568C4.04106 14.3106 3.75019 13.2282 3.75 11.519C3.75303 10.0239 4.34894 8.59112 5.40704 7.53485C6.46448 6.47927 7.89717 5.88594 9.39119 5.88477C9.92311 5.88769 10.4475 5.96184 10.9515 6.10197C12.2683 6.46808 13.2934 7.44929 14.2817 8.39527Z" fill="current"/>
</svg>
