<svg width="current" height="current" viewBox="0 0 24 24" fill="currentColor" xmlns="http://www.w3.org/2000/svg">
<path fill-rule="evenodd" clip-rule="evenodd" d="M3 11.8284C3 11.2979 3.21071 10.7892 3.58579 10.4142L10.5858 3.41416C11.3668 2.63311 12.6332 2.63311 13.4142 3.41416L20.4142 10.4142C20.7893 10.7892 21 11.2979 21 11.8284V20C21 20.5522 20.5523 21 20 21H14C13.4477 21 13 20.5522 13 20V15H11V20C11 20.5522 10.5523 21 10 21H4C3.44772 21 3 20.5522 3 20V11.8284ZM4.64645 11.4748C4.55268 11.5686 4.5 11.6958 4.5 11.8284V19.5H9.5V14.4999C9.5 13.9477 9.94772 13.4999 10.5 13.4999H13.5C14.0523 13.4999 14.5 13.9477 14.5 14.4999V19.5H19.5V11.8284C19.5 11.6958 19.4473 11.5686 19.3536 11.4748L12.3536 4.47481C12.1583 4.27955 11.8417 4.27955 11.6464 4.47482L4.64645 11.4748Z" fill="current"/>
</svg>
