<svg width="current" height="current" viewBox="0 0 24 24" fill="currentColor" xmlns="http://www.w3.org/2000/svg">
<path d="M3.00098 11.8286C3.00098 11.2981 3.21169 10.7894 3.58676 10.4144L10.5868 3.4144C11.3678 2.63335 12.6341 2.63335 13.4152 3.4144L20.4152 10.4144C20.7903 10.7894 21.001 11.2981 21.001 11.8286V20.0002C21.001 20.5524 20.5533 21.0002 20.001 21.0002H15.001C14.4487 21.0002 14.001 20.5524 14.001 20.0002V16.0002C14.001 15.4479 13.5533 15.0002 13.001 15.0002H11.001C10.4487 15.0002 10.001 15.4479 10.001 16.0002V20.0002C10.001 20.5524 9.55326 21.0002 9.00098 21.0002H4.00098C3.44869 21.0002 3.00098 20.5524 3.00098 20.0002V11.8286Z" fill="current"/>
</svg>
