<svg width="current" height="current" viewBox="0 0 24 24" fill="currentColor" xmlns="http://www.w3.org/2000/svg">
<path fill-rule="evenodd" clip-rule="evenodd" d="M3 11.8286C3 11.2981 3.21071 10.7894 3.58579 10.4144L10.5858 3.4144C11.3668 2.63335 12.6332 2.63335 13.4142 3.4144L20.4142 10.4144C20.7893 10.7894 21 11.2981 21 11.8286V20.0002C21 20.5524 20.5523 21.0002 20 21.0002H14C13.4477 21.0002 13 20.5524 13 20.0002V15.0002H11V20.0002C11 20.5524 10.5523 21.0002 10 21.0002H4C3.44772 21.0002 3 20.5524 3 20.0002V11.8286ZM4.64645 11.475C4.55268 11.5688 4.5 11.696 4.5 11.8286V19.5002H9.5V14.5001C9.5 13.9479 9.94772 13.5001 10.5 13.5001H13.5C14.0523 13.5001 14.5 13.9479 14.5 14.5001V19.5002H19.5V11.8286C19.5 11.696 19.4473 11.5688 19.3536 11.475L12.3536 4.47505C12.1583 4.27979 11.8417 4.27979 11.6464 4.47506L4.64645 11.475Z" fill="current"/>
</svg>
