<svg width="current" height="current" viewBox="0 0 48 48" fill="currentColor" xmlns="http://www.w3.org/2000/svg">
<path d="M41.9081 9H6.09562C5.27526 9 4.48845 9.32563 3.90801 9.90536C3.32758 10.4851 3.00099 11.2715 3 12.0919V35.9044C3 36.7247 3.32563 37.5116 3.90536 38.092C4.48509 38.6724 5.27151 38.999 6.09188 39H41.9044C42.7247 39 43.5116 38.6744 44.092 38.0946C44.6724 37.5149 44.999 36.7285 45 35.9081V12.0956C45 11.2753 44.6744 10.4884 44.0946 9.90801C43.5149 9.32758 42.7285 9.00099 41.9081 9ZM42 35.9081C42 35.9202 41.9976 35.9321 41.993 35.9433C41.9884 35.9544 41.9816 35.9646 41.9731 35.9731C41.9646 35.9816 41.9544 35.9884 41.9433 35.993C41.9321 35.9976 41.9202 36 41.9081 36H6.09562C6.08356 36 6.07161 35.9976 6.06047 35.993C6.04932 35.9884 6.03919 35.9816 6.03066 35.9731C6.02213 35.9646 6.01536 35.9544 6.01074 35.9433C6.00613 35.9321 6.00375 35.9202 6.00375 35.9081V12.0956C6.00375 12.0713 6.01343 12.0479 6.03066 12.0307C6.04789 12.0134 6.07126 12.0037 6.09562 12.0037H41.9081C41.9325 12.0037 41.9559 12.0134 41.9731 12.0307C41.9903 12.0479 42 12.0713 42 12.0956V35.9081ZM39 24C39 24.3978 38.842 24.7794 38.5607 25.0607C38.2794 25.342 37.8978 25.5 37.5 25.5H10.5C10.1022 25.5 9.72064 25.342 9.43934 25.0607C9.15804 24.7794 9 24.3978 9 24C9 23.6022 9.15804 23.2206 9.43934 22.9393C9.72064 22.658 10.1022 22.5 10.5 22.5H37.5C37.8978 22.5 38.2794 22.658 38.5607 22.9393C38.842 23.2206 39 23.6022 39 24ZM39 18C39 18.3978 38.842 18.7794 38.5607 19.0607C38.2794 19.342 37.8978 19.5 37.5 19.5H10.5C10.1022 19.5 9.72064 19.342 9.43934 19.0607C9.15804 18.7794 9 18.3978 9 18C9 17.6022 9.15804 17.2206 9.43934 16.9393C9.72064 16.658 10.1022 16.5 10.5 16.5H37.5C37.8978 16.5 38.2794 16.658 38.5607 16.9393C38.842 17.2206 39 17.6022 39 18ZM13.5 30C13.5 30.3978 13.342 30.7794 13.0607 31.0607C12.7794 31.342 12.3978 31.5 12 31.5H10.5C10.1022 31.5 9.72064 31.342 9.43934 31.0607C9.15804 30.7794 9 30.3978 9 30C9 29.6022 9.15804 29.2206 9.43934 28.9393C9.72064 28.658 10.1022 28.5 10.5 28.5H12C12.3978 28.5 12.7794 28.658 13.0607 28.9393C13.342 29.2206 13.5 29.6022 13.5 30ZM31.5 30C31.5 30.3978 31.342 30.7794 31.0607 31.0607C30.7794 31.342 30.3978 31.5 30 31.5H18C17.6022 31.5 17.2206 31.342 16.9393 31.0607C16.658 30.7794 16.5 30.3978 16.5 30C16.5 29.6022 16.658 29.2206 16.9393 28.9393C17.2206 28.658 17.6022 28.5 18 28.5H30C30.3978 28.5 30.7794 28.658 31.0607 28.9393C31.342 29.2206 31.5 29.6022 31.5 30ZM39 30C39 30.3978 38.842 30.7794 38.5607 31.0607C38.2794 31.342 37.8978 31.5 37.5 31.5H36C35.6022 31.5 35.2206 31.342 34.9393 31.0607C34.658 30.7794 34.5 30.3978 34.5 30C34.5 29.6022 34.658 29.2206 34.9393 28.9393C35.2206 28.658 35.6022 28.5 36 28.5H37.5C37.8978 28.5 38.2794 28.658 38.5607 28.9393C38.842 29.2206 39 29.6022 39 30Z" fill="current"/>
</svg>
