<svg width="current" height="current" viewBox="0 0 48 48" fill="current" xmlns="http://www.w3.org/2000/svg">
<path d="M37.5 6H30C29.2044 6 28.4413 6.31607 27.8787 6.87868C27.3161 7.44129 27 8.20435 27 9V39C27 39.7956 27.3161 40.5587 27.8787 41.1213C28.4413 41.6839 29.2044 42 30 42H37.5C38.2956 42 39.0587 41.6839 39.6213 41.1213C40.1839 40.5587 40.5 39.7956 40.5 39V9C40.5 8.20435 40.1839 7.44129 39.6213 6.87868C39.0587 6.31607 38.2956 6 37.5 6ZM37.5 39H30V9H37.5V39ZM18 6H10.5C9.70435 6 8.94129 6.31607 8.37868 6.87868C7.81607 7.44129 7.5 8.20435 7.5 9V39C7.5 39.7956 7.81607 40.5587 8.37868 41.1213C8.94129 41.6839 9.70435 42 10.5 42H18C18.7956 42 19.5587 41.6839 20.1213 41.1213C20.6839 40.5587 21 39.7956 21 39V9C21 8.20435 20.6839 7.44129 20.1213 6.87868C19.5587 6.31607 18.7956 6 18 6ZM18 39H10.5V9H18V39Z" fill="currentColor"/>
</svg>
