<svg width="37" height="37" viewBox="0 0 37 37" fill="none" xmlns="http://www.w3.org/2000/svg">
<path fill-rule="evenodd" clip-rule="evenodd" d="M35.6716 11.3284L11.1716 35.8284C10.4214 36.5786 9.40401 37 8.34315 37H2C0.895431 37 0 36.1046 0 35V28.6569C0 27.596 0.421427 26.5786 1.17157 25.8284L25.6716 1.32843C27.2337 -0.233665 29.7663 -0.233663 31.3284 1.32843L35.6716 5.67158C37.2337 7.23368 37.2337 9.76634 35.6716 11.3284ZM22.7832 8.45945L28.5406 14.2168L9.05025 33.7071C8.86272 33.8947 8.60837 34 8.34315 34H3V28.6569C3 28.3916 3.10536 28.1373 3.29289 27.9498L22.7832 8.45945ZM24.9045 6.33813L30.6619 12.0955L33.5503 9.20711C33.9408 8.81659 33.9408 8.18343 33.5503 7.7929L29.2071 3.44975C28.8166 3.05923 28.1834 3.05923 27.7929 3.44975L24.9045 6.33813Z" fill="white"/>
</svg>
