<svg width="current" height="current" viewBox="0 0 50 52" fill="currentColor" xmlns="http://www.w3.org/2000/svg">
<path fill-rule="evenodd" clip-rule="evenodd" d="M6.05721 38.8629C6.1274 39.0067 6.19917 39.1496 6.27251 39.2917C9.96994 46.4533 17.6477 51.375 26.5196 51.375C37.72 51.375 47.0171 43.5308 48.805 33.2384C48.9605 32.3434 49.0592 31.4299 49.0974 30.5014C49.1094 30.2107 49.1154 29.9185 49.1154 29.625H49.0974V28.1474C49.0974 24.7692 46.7641 21.8386 43.4717 21.0817L28.0904 17.5458V6.66667C28.0904 3.32995 25.3855 0.625 22.0488 0.625C18.712 0.625 16.0071 3.32995 16.0071 6.66667V27.8125H15.9943L11.6427 23.7046C8.4247 20.6668 3.17801 21.6621 1.29604 25.6673C0.731242 26.8693 0.748719 28.2639 1.34346 29.4514L6.05721 38.8629ZM24.4654 17.5458C24.4654 19.235 25.6321 20.7002 27.2783 21.0787L42.6596 24.6146C44.3058 24.993 45.4724 26.4583 45.4724 28.1474V29.625C45.4724 29.7365 45.4774 29.8468 45.4873 29.9557C45.3032 39.6893 37.0099 47.75 26.5196 47.75C19.0031 47.75 12.5685 43.5847 9.49355 37.6287C9.43267 37.5108 9.3731 37.3921 9.31488 37.2729C9.30945 37.2617 9.30396 37.2506 9.29841 37.2396L4.58466 27.828C4.48735 27.6337 4.4845 27.4056 4.5769 27.2089C5.40949 25.437 7.73065 24.9967 9.1543 26.3406L13.5059 30.4485C14.1788 31.0837 15.069 31.4375 15.9943 31.4375H16.0071C18.0091 31.4375 19.6321 29.8145 19.6321 27.8125V6.66667C19.6321 5.33198 20.7141 4.25 22.0488 4.25C23.3834 4.25 24.4654 5.33198 24.4654 6.66667V17.5458Z" fill="current"/>
</svg>
