<svg width="current" height="current" viewBox="0 0 20 20" fill="none" xmlns="http://www.w3.org/2000/svg">
<path fill-rule="evenodd" clip-rule="evenodd" d="M10.002 20C15.5248 20 20.002 15.5228 20.002 10C20.002 4.47715 15.5248 0 10.002 0C4.47911 0 0.00195312 4.47715 0.00195312 10C0.00195312 15.5228 4.47911 20 10.002 20ZM9.252 13.75C9.252 14.1642 9.5877 14.5 10.002 14.5C10.4162 14.5 10.752 14.1642 10.752 13.75V10.75H13.752C14.1662 10.75 14.502 10.4142 14.502 10C14.502 9.5858 14.1662 9.25 13.752 9.25H10.752V6.25C10.752 5.83579 10.4162 5.5 10.002 5.5C9.5877 5.5 9.252 5.83579 9.252 6.25V9.25H6.25195C5.83774 9.25 5.50195 9.5858 5.50195 10C5.50195 10.4142 5.83774 10.75 6.25195 10.75H9.252V13.75Z" fill="#F3774D"/>
</svg>
