<svg width="current" height="current" viewBox="0 0 14 14" fill="none" xmlns="http://www.w3.org/2000/svg">
<path d="M5.66668 5.66667C5.94281 5.66667 6.16668 5.89053 6.16668 6.16667V9.83333C6.16668 10.1095 5.94281 10.3333 5.66668 10.3333C5.39054 10.3333 5.16668 10.1095 5.16668 9.83333V6.16667C5.16668 5.89053 5.39054 5.66667 5.66668 5.66667Z" fill="#2B2926"/>
<path d="M8.83334 6.16667C8.83334 5.89053 8.60948 5.66667 8.33334 5.66667C8.05721 5.66667 7.83334 5.89053 7.83334 6.16667V9.83333C7.83334 10.1095 8.05721 10.3333 8.33334 10.3333C8.60948 10.3333 8.83334 10.1095 8.83334 9.83333V6.16667Z" fill="#2B2926"/>
<path fill-rule="evenodd" clip-rule="evenodd" d="M4.00001 2.33333V1.33333C4.00001 0.596953 4.59696 0 5.33334 0H8.66668C9.40308 0 10 0.596953 10 1.33333V2.33333H13.1667C13.4428 2.33333 13.6667 2.55719 13.6667 2.83333C13.6667 3.10947 13.4428 3.33333 13.1667 3.33333H12.2745L11.7405 12.4116C11.6991 13.1164 11.1154 13.6667 10.4095 13.6667H3.59055C2.88458 13.6667 2.30098 13.1164 2.25952 12.4116L1.7255 3.33333H0.833343C0.557204 3.33333 0.333344 3.10947 0.333344 2.83333C0.333344 2.55719 0.557204 2.33333 0.833343 2.33333H4.00001ZM5.33334 1H8.66668C8.85074 1 9.00001 1.14924 9.00001 1.33333V2.33333H5.00001V1.33333C5.00001 1.14924 5.14925 1 5.33334 1ZM2.72723 3.33333L3.25779 12.3529C3.26816 12.5291 3.41406 12.6667 3.59055 12.6667H10.4095C10.5859 12.6667 10.7319 12.5291 10.7422 12.3529L11.2728 3.33333H2.72723Z" fill="#2B2926"/>
</svg>
