<svg width="current" height="current" viewBox="0 0 48 48" fill="currentColor" xmlns="http://www.w3.org/2000/svg">
<path d="M22 35C22 37.192 22.542 39.258 23.5 41.07V42.5C23.4999 42.88 23.3555 43.2459 23.0961 43.5236C22.8366 43.8013 22.4814 43.9701 22.1022 43.9961C21.7231 44.022 21.3482 43.903 21.0534 43.6631C20.7586 43.4233 20.5658 43.0805 20.514 42.704L20.5 42.5V37.964C17.183 37.7177 14.0737 36.2555 11.7684 33.8579C9.4631 31.4603 8.12403 28.2961 8.008 24.972L8 24.5V23.5C8.00012 23.12 8.14449 22.7541 8.40394 22.4764C8.6634 22.1987 9.0186 22.0299 9.39776 22.0039C9.77692 21.978 10.1518 22.097 10.4466 22.3369C10.7414 22.5767 10.9342 22.9195 10.986 23.296L11 23.5V24.5C10.9998 27.2101 12.0474 29.8154 13.9239 31.7709C15.8003 33.7263 18.3602 34.8805 21.068 34.992L21.5 35H22ZM30 12V22.996C28.9007 23.4546 27.8697 24.0623 26.936 24.802C26.978 24.542 27 24.274 27 24V12C27 10.6739 26.4732 9.40215 25.5355 8.46447C24.5979 7.52678 23.3261 7 22 7C20.6739 7 19.4021 7.52678 18.4645 8.46447C17.5268 9.40215 17 10.6739 17 12V24C16.9999 24.7946 17.1891 25.5777 17.552 26.2846C17.9148 26.9914 18.441 27.6016 19.0867 28.0645C19.7325 28.5275 20.4792 28.8299 21.2652 28.9467C22.0511 29.0634 22.8535 28.9912 23.606 28.736C23.042 29.7595 22.6195 30.8549 22.35 31.992C21.271 32.0393 20.1936 31.8675 19.1828 31.4872C18.172 31.1069 17.2486 30.5258 16.4684 29.7791C15.6882 29.0323 15.0672 28.1353 14.643 27.142C14.2188 26.1488 14 25.08 14 24V12C14 9.87827 14.8429 7.84344 16.3431 6.34315C17.8434 4.84285 19.8783 4 22 4C24.1217 4 26.1566 4.84285 27.6569 6.34315C29.1571 7.84344 30 9.87827 30 12ZM40 35C40 36.3261 39.4732 37.5979 38.5355 38.5355C37.5979 39.4732 36.3261 40 35 40C33.6739 40 32.4021 39.4732 31.4645 38.5355C30.5268 37.5979 30 36.3261 30 35C30 33.6739 30.5268 32.4021 31.4645 31.4645C32.4021 30.5268 33.6739 30 35 30C36.3261 30 37.5979 30.5268 38.5355 31.4645C39.4732 32.4021 40 33.6739 40 35ZM46 35C46 37.9174 44.8411 40.7153 42.7782 42.7782C40.7153 44.8411 37.9174 46 35 46C32.0826 46 29.2847 44.8411 27.2218 42.7782C25.1589 40.7153 24 37.9174 24 35C24 32.0826 25.1589 29.2847 27.2218 27.2218C29.2847 25.1589 32.0826 24 35 24C37.9174 24 40.7153 25.1589 42.7782 27.2218C44.8411 29.2847 46 32.0826 46 35ZM27 35C27 37.1217 27.8429 39.1566 29.3431 40.6569C30.8434 42.1571 32.8783 43 35 43C37.1217 43 39.1566 42.1571 40.6569 40.6569C42.1571 39.1566 43 37.1217 43 35C43 32.8783 42.1571 30.8434 40.6569 29.3431C39.1566 27.8429 37.1217 27 35 27C32.8783 27 30.8434 27.8429 29.3431 29.3431C27.8429 30.8434 27 32.8783 27 35Z" fill="current"/>
</svg>
