<svg width="80" height="80" viewBox="0 0 80 80" fill="none" xmlns="http://www.w3.org/2000/svg">
<circle opacity="0.4" cx="40" cy="40" r="40" fill="#EB5757"/>
<path d="M39.9113 24C42.1479 24 43.9343 25.8627 43.8408 28.0974L43.2601 41.9688C43.1849 43.7638 41.7079 45.1803 39.9113 45.1803V45.1803C38.1148 45.1803 36.6377 43.7638 36.5626 41.9688L35.9819 28.0974C35.8883 25.8627 37.6747 24 39.9113 24V24ZM40.0222 56.5C38.6921 56.5 37.5985 56.1168 36.7414 55.3503C35.9138 54.5544 35.5 53.5816 35.5 52.432C35.5 51.2528 35.9138 50.2653 36.7414 49.4694C37.5985 48.6735 38.6921 48.2755 40.0222 48.2755C41.3227 48.2755 42.3867 48.6735 43.2143 49.4694C44.0714 50.2653 44.5 51.2528 44.5 52.432C44.5 53.5816 44.0714 54.5544 43.2143 55.3503C42.3867 56.1168 41.3227 56.5 40.0222 56.5Z" fill="#EB5757"/>
</svg>
