<svg width="24" height="24" viewBox="0 0 25 25" fill="none" xmlns="http://www.w3.org/2000/svg">
<path d="M20.4331 13.5412C20.2442 14.9811 19.667 16.3425 18.7632 17.4793C17.8595 18.6162 16.6633 19.4855 15.303 19.9942C13.9427 20.5029 12.4696 20.6317 11.0417 20.3667C9.6138 20.1018 8.28492 19.4532 7.19761 18.4905C6.1103 17.5277 5.30557 16.2872 4.86973 14.9018C4.43389 13.5165 4.38338 12.0386 4.72362 10.6268C5.06385 9.21488 5.782 7.92227 6.80104 6.88752C7.82007 5.85278 9.10156 5.11495 10.5081 4.75317C14.4071 3.75317 18.4431 5.76017 19.9331 9.50017" stroke="white" stroke-width="2.5" stroke-linecap="round" stroke-linejoin="round"/>
<path d="M20.5 4.5V9.5H15.5" stroke="white" stroke-width="2.5" stroke-linecap="round" stroke-linejoin="round"/>
</svg>
