<svg width="current" height="current" viewBox="0 0 24 24" fill="currentColor" xmlns="http://www.w3.org/2000/svg">
<path fill-rule="evenodd" clip-rule="evenodd" d="M20 7.82843C20 7.298 19.7893 6.78929 19.4142 6.41421L15.5858 2.58579C15.2107 2.21071 14.702 2 14.1716 2H6C4.89543 2 4 2.89543 4 4V20C4 21.1046 4.89543 22 6 22H18C19.1046 22 20 21.1046 20 20V7.82843ZM15.75 10.75C16.1642 10.75 16.5 10.4142 16.5 10C16.5 9.58579 16.1642 9.25 15.75 9.25H8.25C7.83579 9.25 7.5 9.58579 7.5 10C7.5 10.4142 7.83579 10.75 8.25 10.75H15.75ZM8.25 14.75C7.83579 14.75 7.5 14.4142 7.5 14C7.5 13.5858 7.83579 13.25 8.25 13.25H13.75C14.1642 13.25 14.5 13.5858 14.5 14C14.5 14.4142 14.1642 14.75 13.75 14.75H8.25Z" fill="current"/>
</svg>
