<svg width="current" height="current" viewBox="0 0 28 28" fill="currentColor" xmlns="http://www.w3.org/2000/svg">
<path d="M14.0003 4.66797C14.0003 5.15122 13.6086 5.54297 13.1253 5.54297H5.83366C5.67258 5.54297 5.54199 5.67355 5.54199 5.83464V22.168C5.54199 22.329 5.67258 22.4596 5.83366 22.4596H13.1253C13.6086 22.4596 14.0003 22.8514 14.0003 23.3346C14.0003 23.8179 13.6086 24.2096 13.1253 24.2096H5.83366C4.70608 24.2096 3.79199 23.2955 3.79199 22.168V5.83464C3.79199 4.70705 4.70608 3.79297 5.83366 3.79297H13.1253C13.6086 3.79297 14.0003 4.18472 14.0003 4.66797Z" fill="current"/>
<path d="M17.5006 18.5971L21.2215 14.8762H10.2089C9.7257 14.8762 9.33395 14.4845 9.33395 14.0012C9.33395 13.518 9.7257 13.1262 10.2089 13.1262H21.2215L17.5006 9.4053C17.1589 9.06359 17.1589 8.50957 17.5006 8.16786C17.8423 7.82615 18.3963 7.82615 18.738 8.16786L23.9527 13.3825C24.1168 13.5466 24.2089 13.7692 24.2089 14.0012C24.2089 14.2333 24.1168 14.4559 23.9527 14.6199L18.7381 19.8345C18.3964 20.1762 17.8424 20.1762 17.5006 19.8345C17.1589 19.4928 17.1589 18.9388 17.5006 18.5971Z" fill="current"/>
</svg>
