<svg width="current" height="current" viewBox="0 0 58 58" fill="currentColor" xmlns="http://www.w3.org/2000/svg">
<path d="M24.7708 24.1666C24.7708 25.8351 23.4184 27.1874 21.75 27.1874C20.0816 27.1874 18.7292 25.8351 18.7292 24.1666C18.7292 22.4982 20.0816 21.1458 21.75 21.1458C23.4184 21.1458 24.7708 22.4982 24.7708 24.1666Z" fill="current"/>
<path d="M36.25 27.1874C37.9185 27.1874 39.2708 25.8351 39.2708 24.1666C39.2708 22.4982 37.9185 21.1458 36.25 21.1458C34.5815 21.1458 33.2292 22.4982 33.2292 24.1666C33.2292 25.8351 34.5815 27.1874 36.25 27.1874Z" fill="current"/>
<path d="M20.6266 33.8332C21.4931 33.332 22.5894 33.6474 23.2747 34.377C24.7087 35.9036 26.7441 36.8541 29 36.8541C31.256 36.8541 33.2913 35.9036 34.7253 34.377C35.4107 33.6474 36.5069 33.332 37.3735 33.8332C38.2399 34.3344 38.5461 35.4548 37.9149 36.2318C35.8119 38.8207 32.6004 40.4791 29 40.4791C25.3997 40.4791 22.1881 38.8207 20.0852 36.2318C19.454 35.4548 19.7601 34.3344 20.6266 33.8332Z" fill="current"/>
<path fill-rule="evenodd" clip-rule="evenodd" d="M29 53.1666C42.3468 53.1666 53.1667 42.3467 53.1667 28.9999C53.1667 15.653 42.3468 4.83325 29 4.83325C15.6531 4.83325 4.83333 15.653 4.83333 28.9999C4.83333 42.3467 15.6531 53.1666 29 53.1666ZM29 49.5416C40.3448 49.5416 49.5417 40.3447 49.5417 28.9999C49.5417 17.6551 40.3448 8.45825 29 8.45825C17.6552 8.45825 8.45833 17.6551 8.45833 28.9999C8.45833 40.3447 17.6552 49.5416 29 49.5416Z" fill="current"/>
</svg>
