<svg width="current" height="current" viewBox="0 0 24 24" fill="currentColor" xmlns="http://www.w3.org/2000/svg">
<path d="M10.25 9.99999C10.25 10.6904 9.69036 11.25 8.99999 11.25C8.30961 11.25 7.75 10.6904 7.75 9.99999C7.75 9.30961 8.30961 8.75 8.99999 8.75C9.69036 8.75 10.25 9.30961 10.25 9.99999Z" fill="current"/>
<path d="M15 11.25C15.6904 11.25 16.25 10.6904 16.25 9.99999C16.25 9.30961 15.6904 8.75 15 8.75C14.3096 8.75 13.75 9.30961 13.75 9.99999C13.75 10.6904 14.3096 11.25 15 11.25Z" fill="current"/>
<path d="M8.53496 13.9999C8.89352 13.7925 9.34716 13.923 9.63073 14.2249C10.2241 14.8566 11.0663 15.2499 11.9998 15.2499C12.9333 15.2499 13.7755 14.8566 14.3689 14.2249C14.6525 13.923 15.1061 13.7925 15.4647 13.9999C15.8232 14.2072 15.9499 14.6709 15.6887 14.9924C14.8185 16.0636 13.4896 16.7499 11.9998 16.7499C10.51 16.7499 9.1811 16.0636 8.31094 14.9924C8.04975 14.6709 8.17641 14.2072 8.53496 13.9999Z" fill="current"/>
<path fill-rule="evenodd" clip-rule="evenodd" d="M12 22C17.5228 22 22 17.5228 22 12C22 6.47714 17.5228 2 12 2C6.47715 2 2 6.47714 2 12C2 17.5228 6.47715 22 12 22ZM12 20.5C16.6944 20.5 20.5 16.6944 20.5 12C20.5 7.30559 16.6944 3.5 12 3.5C7.3056 3.5 3.5 7.30559 3.5 12C3.5 16.6944 7.3056 20.5 12 20.5Z" fill="current"/>
</svg>
