<svg width="current" height="current" viewBox="0 0 48 48" fill="currentColor" xmlns="http://www.w3.org/2000/svg">
<path d="M10.5 15C10.5 13.8065 10.9741 12.6619 11.818 11.818C12.6619 10.9741 13.8065 10.5 15 10.5H33C34.1935 10.5 35.3381 10.9741 36.182 11.818C37.0259 12.6619 37.5 13.8065 37.5 15V33C37.5 34.1935 37.0259 35.3381 36.182 36.182C35.3381 37.0259 34.1935 37.5 33 37.5H15C13.8065 37.5 12.6619 37.0259 11.818 36.182C10.9741 35.3381 10.5 34.1935 10.5 33V15ZM15 13.5C14.6022 13.5 14.2206 13.658 13.9393 13.9393C13.658 14.2206 13.5 14.6022 13.5 15V33C13.5 33.3978 13.658 33.7794 13.9393 34.0607C14.2206 34.342 14.6022 34.5 15 34.5H33C33.3978 34.5 33.7794 34.342 34.0607 34.0607C34.342 33.7794 34.5 33.3978 34.5 33V15C34.5 14.6022 34.342 14.2206 34.0607 13.9393C33.7794 13.658 33.3978 13.5 33 13.5H15Z" fill="current"/>
</svg>
