<svg width="54" height="44" viewBox="0 0 54 44" fill="currentColor" xmlns="http://www.w3.org/2000/svg">
<path d="M20.1667 19.5833C25.5053 19.5833 29.8333 15.2554 29.8333 9.91667C29.8333 4.57791 25.5053 0.25 20.1667 0.25C14.8279 0.25 10.5 4.57791 10.5 9.91667C10.5 15.2554 14.8279 19.5833 20.1667 19.5833Z" fill="current"/>
<path d="M38.4886 32.8243C39.1718 33.6179 39.5 34.6471 39.5 35.6943V38.9167C39.5 41.5861 37.3361 43.75 34.6667 43.75H5.66666C2.99728 43.75 0.833328 41.5861 0.833328 38.9167V35.6943C0.833328 34.6471 1.16141 33.6179 1.84463 32.8243C6.27651 27.6763 12.8409 24.4167 20.1667 24.4167C27.4923 24.4167 34.0569 27.6763 38.4886 32.8243Z" fill="current"/>
<path d="M44.3333 24.4167C43.3323 24.4167 42.5208 23.6052 42.5208 22.6042V16.5625H36.4792C35.4782 16.5625 34.6667 15.751 34.6667 14.75C34.6667 13.749 35.4782 12.9375 36.4792 12.9375H42.5208V6.89583C42.5208 5.89483 43.3323 5.08333 44.3333 5.08333C45.3343 5.08333 46.1458 5.89483 46.1458 6.89583V12.9375H52.1875C53.1885 12.9375 54 13.749 54 14.75C54 15.751 53.1885 16.5625 52.1875 16.5625H46.1458V22.6042C46.1458 23.6052 45.3343 24.4167 44.3333 24.4167Z" fill="current"/>
</svg>
