<svg width="current" height="current" viewBox="0 0 131 20" fill="none" xmlns="http://www.w3.org/2000/svg">
<path d="M17.7931 16.3257L11.167 0H6.62609L0 16.3257H3.7069L5.51402 11.7974H12.2791L14.0862 16.3257H17.7931ZM8.89657 3.3565L11.1439 8.99702H6.64926L8.89657 3.3565Z" fill="white"/>
<path d="M27.1728 3.97219C25.4584 3.97219 24.1146 4.64747 23.3037 5.62066L23.1647 4.27011H19.759V16.3257H23.3964V8.9573C23.3964 7.56703 24.717 6.79245 26.1071 6.79245C27.4972 6.79245 28.8177 7.28898 28.8177 9.21549V16.3257H32.4551V9.09633C32.4551 5.87885 29.953 3.97219 27.1728 3.97219Z" fill="white"/>
<path d="M34.0843 13.8431C35.3354 15.6504 37.7449 16.6236 40.6409 16.6236C43.5601 16.6236 46.3866 15.5114 46.3866 12.9494C46.3866 10.4072 43.8381 9.51341 41.7067 9.09633L40.2007 8.79841C39.135 8.57994 38.6021 8.26217 38.6021 7.60675C38.6021 6.95134 39.2508 6.59384 40.3629 6.59384C41.5213 6.59384 42.7724 7.18967 43.7455 8.143L46.3171 6.45482C45.0892 5.10427 43.2821 3.97219 40.4324 3.97219C37.351 3.97219 35.1037 5.20357 35.1037 7.60675C35.1037 9.99007 37.351 10.9831 39.4825 11.4002L40.9884 11.6981C42.0542 11.9166 42.8882 12.1549 42.8882 12.9494C42.8882 13.7438 41.7993 14.002 40.7104 14.002C39.5984 14.002 37.8839 13.6048 36.8182 12.2344L34.0843 13.8431Z" fill="white"/>
<path d="M62.2726 12.7905L59.7472 4.27011H56.411L53.8857 12.7905L51.0592 4.27011H47.3291L51.9164 16.3257H55.6001L58.0791 8.91758L60.5581 16.3257H64.2418L68.8291 4.27011H65.0991L62.2726 12.7905Z" fill="white"/>
<path d="M82.7002 9.7716C82.7002 5.91857 79.7578 3.97219 76.1667 3.97219C72.5989 3.97219 69.6565 5.91857 69.6565 9.75174V10.8242C69.6565 14.6773 72.5989 16.6236 76.1667 16.6236C79.2249 16.6236 81.6808 15.432 82.4685 13.2075L79.1554 12.3734C78.6689 13.3863 77.5568 13.8828 76.1667 13.8828C74.7303 13.8828 73.4792 13.1082 73.2244 11.4399H82.7002V9.7716ZM73.2707 8.89772C73.6183 7.40814 74.7998 6.71301 76.1667 6.71301C77.7885 6.71301 79.1323 7.72592 79.1323 8.89772H73.2707Z" fill="white"/>
<path d="M92.276 3.97219C90.6774 3.97219 89.6349 4.60775 88.9167 5.68024L88.7776 4.27011H85.3719V16.3257H89.0093V8.9573C89.0093 7.24926 90.4921 6.81231 91.6042 6.81231C92.0907 6.81231 92.6931 6.89176 93.2028 7.05065L94.06 4.25025C93.6198 4.0715 92.8552 3.97219 92.276 3.97219Z" fill="white"/>
<path d="M99.5526 16.3257V0H95.9152V16.3257H99.5526Z" fill="white"/>
<path d="M108.84 16.6236C112.431 16.6236 115.489 14.7368 115.489 10.9831V9.59285C115.489 5.85899 112.431 3.97219 108.84 3.97219C105.272 3.97219 102.214 5.85899 102.214 9.59285V10.9831C102.214 14.7368 105.272 16.6236 108.84 16.6236ZM108.84 13.7835C107.265 13.7835 105.851 12.9096 105.851 10.9235V9.67229C105.851 7.6862 107.265 6.81231 108.84 6.81231C110.439 6.81231 111.852 7.6862 111.852 9.67229V10.9235C111.852 12.9096 110.439 13.7835 108.84 13.7835Z" fill="white"/>
<path d="M127.423 5.60079C126.334 4.54816 124.805 3.97219 123.206 3.97219C120.473 3.97219 117.577 5.99801 117.577 9.27507V10.2483C117.577 13.4856 120.473 15.5313 123.206 15.5313C124.759 15.5313 126.241 14.9752 127.33 13.9821V14.5184C127.33 16.4846 126.172 17.4379 124.203 17.4379C123.091 17.4379 122.141 17.0209 121.747 16.2463L117.97 17.4379C118.92 19.1857 121.399 20 124.203 20C127.771 20 130.968 18.3714 130.968 14.6574V4.27011H127.562L127.423 5.60079ZM124.295 12.8302C122.604 12.8302 121.214 11.8967 121.214 10.149V9.35452C121.214 7.62661 122.604 6.67329 124.295 6.67329C125.94 6.67329 127.33 7.62661 127.33 9.35452V10.149C127.33 11.8967 125.94 12.8302 124.295 12.8302Z" fill="white"/>
</svg>
