<!-- <svg width="current" height="current" viewBox="0 0 391 59" fill="none" xmlns="http://www.w3.org/2000/svg">
<path d="M53.1209 48.1609L33.3389 0H19.782L0 48.1609H11.0668L16.4619 34.8024H36.6589L42.054 48.1609H53.1209ZM26.5604 9.90169L33.2697 26.5412H19.8512L26.5604 9.90169Z" fill="black"/>
<path d="M81.1235 11.718C76.0051 11.718 71.9934 13.71 69.5725 16.5809L69.1575 12.5968H58.9898V48.1609H69.8492V26.424C69.8492 22.3227 73.7917 20.0377 77.9418 20.0377C82.0919 20.0377 86.0344 21.5025 86.0344 27.1857V48.1609H96.8938V26.8342C96.8938 17.3426 89.4237 11.718 81.1235 11.718Z" fill="black"/>
<path d="M101.758 40.8371C105.493 46.1688 112.686 49.0397 121.332 49.0397C130.047 49.0397 138.486 45.7587 138.486 38.2006C138.486 30.7011 130.877 28.0645 124.514 26.8342L120.018 25.9553C116.836 25.3108 115.245 24.3734 115.245 22.4399C115.245 20.5065 117.182 19.4518 120.502 19.4518C123.961 19.4518 127.696 21.2095 130.601 24.0218L138.278 19.0417C134.612 15.0576 129.217 11.718 120.71 11.718C111.51 11.718 104.801 15.3505 104.801 22.4399C104.801 29.4707 111.51 32.4002 117.874 33.6306L122.37 34.5094C125.551 35.1539 128.041 35.857 128.041 38.2006C128.041 40.5442 124.791 41.3059 121.54 41.3059C118.22 41.3059 113.101 40.1341 109.919 36.0914L101.758 40.8371Z" fill="black"/>
<path d="M185.913 37.7319L178.373 12.5968H168.413L160.874 37.7319L152.435 12.5968H141.299L154.995 48.1609H165.992L173.393 26.3069L180.794 48.1609H191.792L205.487 12.5968H194.351L185.913 37.7319Z" fill="black"/>
<path d="M246.899 28.8262C246.899 17.4598 238.114 11.718 227.393 11.718C216.742 11.718 207.957 17.4598 207.957 28.7676V31.9315C207.957 43.2979 216.742 49.0397 227.393 49.0397C236.524 49.0397 243.855 45.5243 246.207 38.9623L236.316 36.5015C234.863 39.4896 231.543 40.9543 227.393 40.9543C223.105 40.9543 219.37 38.6693 218.609 33.7478H246.899V28.8262ZM218.747 26.2483C219.785 21.854 223.312 19.8034 227.393 19.8034C232.235 19.8034 236.247 22.7915 236.247 26.2483H218.747Z" fill="black"/>
<path d="M275.487 11.718C270.715 11.718 267.602 13.5929 265.458 16.7567L265.043 12.5968H254.875V48.1609H265.734V26.424C265.734 21.3853 270.161 20.0963 273.481 20.0963C274.934 20.0963 276.732 20.3307 278.254 20.7994L280.813 12.5382C279.499 12.0109 277.216 11.718 275.487 11.718Z" fill="black"/>
<path d="M297.211 48.1609V0H286.352V48.1609H297.211Z" fill="black"/>
<path d="M324.939 49.0397C335.66 49.0397 344.79 43.4737 344.79 32.4002V28.2989C344.79 17.284 335.66 11.718 324.939 11.718C314.287 11.718 305.157 17.284 305.157 28.2989V32.4002C305.157 43.4737 314.287 49.0397 324.939 49.0397ZM324.939 40.6614C320.235 40.6614 316.016 38.0834 316.016 32.2244V28.5333C316.016 22.6743 320.235 20.0963 324.939 20.0963C329.711 20.0963 333.931 22.6743 333.931 28.5333V32.2244C333.931 38.0834 329.711 40.6614 324.939 40.6614Z" fill="black"/>
<path d="M380.417 16.5223C377.166 13.4171 372.601 11.718 367.829 11.718C359.667 11.718 351.021 17.6941 351.021 27.3615V30.2324C351.021 39.7825 359.667 45.8173 367.829 45.8173C372.463 45.8173 376.89 44.1768 380.141 41.2473V42.8292C380.141 48.6296 376.682 51.4419 370.803 51.4419C367.483 51.4419 364.647 50.2115 363.471 47.9265L352.197 51.4419C355.033 56.5978 362.434 59 370.803 59C381.455 59 391 54.1956 391 43.2393V12.5968H380.832L380.417 16.5223ZM371.08 37.8491C366.03 37.8491 361.88 35.0953 361.88 29.9394V27.5958C361.88 22.4985 366.03 19.6862 371.08 19.6862C375.991 19.6862 380.141 22.4985 380.141 27.5958V29.9394C380.141 35.0953 375.991 37.8491 371.08 37.8491Z" fill="black"/>
</svg> -->
<svg width="current" height="current" viewBox="0 0 470 89" fill="none" xmlns="http://www.w3.org/2000/svg">
<path d="M13.9062 68L19.5312 51.2188H45.0781L50.75 68H63.7812L39.7812 0.125H24.7812L0.875 68H13.9062ZM22.8125 41.375L32 14H32.5625L41.7969 41.375H22.8125Z" fill="black"/>
<path d="M83.2812 38.1875C83.2812 30.7812 87.7344 26.5156 94.0625 26.5625C100.297 26.5156 104 30.5938 104 37.4375V68H115.906V35.5625C115.953 23.375 109.016 16.4375 98.4688 16.4375C90.875 16.4375 85.6719 20.0469 83.375 25.7188H82.7188V17.0938H71.2812V68H83.2812V38.1875Z" fill="black"/>
<path d="M156.219 31.625H167.562C166.672 22.3906 159.172 16.4375 147.031 16.4375C134.609 16.4375 126.453 22.5781 126.5 32C126.453 39.2656 131.375 44.2344 140.844 46.1562L149 47.9375C154.062 49.0156 156.359 50.8906 156.406 53.8438C156.359 57.6406 152.609 59.9844 146.844 59.9375C141.266 59.9844 137.891 57.8281 137.188 53.4688H125C126.266 63.2188 133.906 69.0312 146.844 69.0312C160.156 69.0312 168.547 62.375 168.594 52.8125C168.547 45.5 163.859 41.0469 154.25 38.9375L145.625 37.1562C140.469 35.9375 138.359 33.9688 138.406 31.3438C138.359 27.875 142.109 25.2969 147.219 25.3438C152.281 25.2969 155.469 27.7812 156.219 31.625Z" fill="black"/>
<path d="M188.281 68H200.75L210.312 33.5H210.969L220.531 68H233L247.438 17.0938H235.25L226.344 52.7188H225.875L216.688 17.0938H204.594L195.5 52.9062H195.031L186.031 17.0938H173.844L188.281 68Z" fill="black"/>
<path d="M276.219 69.0312C288.031 69.0312 296.188 63.2188 298.344 54.4062H286.625C285.078 57.4531 281.562 59.7031 276.312 59.6562C268.578 59.7031 263.469 54.5469 263.281 45.875H298.812V42.125C298.812 24.2656 288.031 16.4375 275.562 16.4375C261.031 16.4375 251.469 27.125 251.469 42.875C251.469 58.8125 260.891 69.0312 276.219 69.0312ZM263.328 37.7188C263.75 31.25 268.578 25.7188 275.75 25.7188C282.641 25.7188 287.328 30.7812 287.375 37.7188H263.328Z" fill="black"/>
<path d="M308.094 68H320.094V38C320.094 31.5781 324.969 26.9844 331.625 26.9375C333.594 26.9844 336.078 27.3125 337.156 27.6875V16.625C336.031 16.4844 334.156 16.3438 332.844 16.3438C326.984 16.3438 322.109 19.6719 320.281 25.5312H319.719V17.0938H308.094V68Z" fill="black"/>
<path d="M356.281 0.125H344.281V68H356.281V0.125Z" fill="black"/>
<path d="M389.938 69.0312C404.844 69.0312 414.359 58.4844 414.312 42.7812C414.359 26.9375 404.844 16.4375 389.938 16.4375C375.078 16.4375 365.562 26.9375 365.562 42.7812C365.562 58.4844 375.078 69.0312 389.938 69.0312ZM377.656 42.6875C377.656 33.3594 381.734 25.8594 390.031 25.9062C398.188 25.8594 402.266 33.3594 402.219 42.6875C402.266 52.0156 398.188 59.4688 390.031 59.4688C381.734 59.4688 377.656 52.0156 377.656 42.6875Z" fill="black"/>
<path d="M445.812 88.1562C459.547 88.1562 469.625 81.875 469.625 68.8438V17.0938H457.812V25.4375H457.25C455.375 21.8281 451.578 16.4375 442.625 16.4375C430.812 16.4375 421.531 25.3906 421.531 42.125C421.531 58.7188 430.766 67.25 442.531 67.25C451.297 67.25 455.375 62.5625 457.25 58.8125H457.812V68.5625C457.812 76.0156 453.172 79.1094 446 79.1562C439.859 79.1094 435.688 77.0469 434.844 72.5938H422.938C423.734 82.1562 432.312 88.1562 445.812 88.1562ZM433.719 42.3125C433.719 33.0312 437.844 26.2344 445.812 26.1875C453.594 26.2344 457.906 32.6094 457.906 42.3125C457.906 52.0625 453.547 57.875 445.812 57.875C437.938 57.875 433.719 51.6875 433.719 42.3125Z" fill="black"/>
</svg>