<svg width="260" height="208" viewBox="0 0 260 208" fill="none" xmlns="http://www.w3.org/2000/svg">
<path d="M235.495 115.293C234.971 111.878 234.119 108.464 232.873 105.181C223.432 80.1655 195.24 73.4684 172.949 64.4732C146.527 53.8366 124.104 35.2553 96.5024 27.1794C70.933 19.6944 38.545 16.2801 18.0239 36.9625C2.74777 52.3265 6.87822 74.4533 24.7768 85.2869C35.0046 91.4587 54.1489 95.0042 54.4112 110.04C54.5423 118.116 52.3132 126.454 51.0019 134.333C48.3794 150.42 45.5602 171.102 60.1807 182.527C75.0634 194.214 94.5355 198.744 113.221 197.3C129.218 196.052 143.249 187.779 157.279 180.688C164.229 177.208 171.375 173.86 178.915 171.824C187.176 169.592 195.699 169.92 203.96 167.688C226.382 161.647 238.774 137.616 235.495 115.293Z" fill="#F9DABE"/>
<path d="M226.185 28.9522C222.513 21.4671 215.564 15.6892 207.041 14.967C200.943 14.4417 194.912 16.5428 189.47 19.3661C178.324 25.0783 167.965 33.3513 155.377 35.518C148.887 36.6342 144.625 33.4826 142.724 27.5734C140.888 21.8611 138.659 15.4266 134.725 10.8305C121.809 -4.27085 91.2569 6.56275 82.2748 21.1389C70.8669 39.5888 102.271 64.6702 81.0947 78.5897C67.7854 87.3223 46.5431 85.6808 38.5445 101.636C30.5458 117.525 42.5438 133.94 56.7054 141.031C82.406 153.834 113.286 145.364 133.807 126.783C149.28 112.798 161.999 96.3174 180.684 86.2717C199.108 76.3574 225.005 71.3017 228.808 46.8112C229.857 40.4423 228.742 34.2048 226.185 28.9522Z" fill="url(#paint0_linear_298_584)"/>
<path d="M249.854 95.5295C247.1 90.5395 243.363 85.9434 238.774 82.004C223.956 69.3976 204.288 64.4076 185.668 60.7307C178.98 59.4175 172.424 54.6245 175.243 47.0738C177.341 41.6242 180.161 37.0281 178.521 30.8563C172.424 8.20419 139.512 14.9013 125.94 24.5531C119.777 28.9522 114.401 34.9927 107.124 37.5534C97.617 40.902 86.5369 38.6696 76.637 40.0484C66.0158 41.5585 56.247 46.8768 49.8874 55.5437C42.6755 65.4581 44.1179 79.2463 50.8053 88.9637C61.492 104.393 78.2761 116.934 92.6343 128.753C109.746 142.869 128.694 158.89 149.346 167.228C169.212 175.239 193.011 177.274 213.139 169.067C231.299 161.647 246.576 147.399 252.804 128.424C256.672 117.065 255.23 105.444 249.854 95.5295Z" fill="url(#paint1_linear_298_584)"/>
<path d="M29.1694 99.9943C26.6124 92.9689 19.5316 85.4838 11.5985 85.2212C0.649573 84.8272 -2.56298 96.974 2.02641 105.247C5.69792 111.813 11.9264 116.671 16.3847 122.646C20.2529 127.833 26.4813 127.636 29.3661 121.727C32.1853 115.949 31.923 107.414 29.1694 99.9943Z" fill="url(#paint2_linear_298_584)"/>
<path d="M43.3311 142.015C43.1344 141.228 42.8066 140.44 42.3476 139.717C41.9542 139.061 41.3642 138.339 40.7741 137.813C39.594 136.829 38.7417 136.303 37.2337 135.778C36.3814 135.45 35.5291 135.45 34.6768 135.318C32.4476 135.121 29.694 136.697 28.7761 138.733C28.1205 140.046 27.7271 141.228 27.7271 142.738C27.7271 143.329 27.8582 144.182 27.9894 144.773C28.1205 145.43 28.4483 146.152 28.8417 146.743C29.5629 147.925 30.4808 148.975 31.7265 149.698C33.0377 150.485 34.349 150.748 35.8569 150.814C36.7092 150.814 37.5615 150.682 38.4139 150.354C39.135 150.157 39.7907 149.894 40.3807 149.435C40.8397 149.107 41.2331 148.778 41.692 148.384C42.3476 147.793 42.8065 147.071 43.0688 146.283C43.5933 144.904 43.7244 143.526 43.3311 142.015Z" fill="url(#paint3_linear_298_584)"/>
<path d="M242.576 30.4623C241.789 28.5582 240.216 27.1794 238.052 27.5077C236.217 27.7703 234.25 29.5431 234.446 31.5785C235.102 37.0938 236.348 42.2151 235.692 47.8617C235.102 53.377 233.266 58.6953 230.578 63.4884C228.48 67.1652 233.856 70.2512 236.217 66.7713C239.757 61.5186 242.248 55.6094 243.297 49.3719C244.281 43.5283 244.805 36.1746 242.576 30.4623Z" fill="url(#paint4_linear_298_584)"/>
<path d="M250.837 70.6451C246.706 69.2006 240.281 68.2158 236.479 70.7764C234.708 71.9583 235.561 74.2563 237.462 74.5189C239.363 74.7816 241.199 74.322 243.101 74.5189C245.133 74.7159 247.165 75.3068 249.001 76.1604C251.82 77.5392 254.64 81.5444 257.983 81.2817C258.836 81.2161 259.622 80.7564 259.819 79.8372C261.196 75.0442 254.377 71.9583 250.837 70.6451Z" fill="url(#paint5_linear_298_584)"/>
<path d="M253.591 58.3014C253.132 57.5791 252.28 56.9882 251.427 56.7256C250.575 56.3973 249.592 56.3973 248.674 56.7912H248.608C247.428 56.6599 246.248 57.5791 245.658 58.4983C244.871 59.6802 244.674 61.256 245.068 62.6348C245.592 64.5389 247.559 66.1147 249.526 66.049C253.263 65.852 255.623 61.3873 253.591 58.3014Z" fill="url(#paint6_linear_298_584)"/>
<path d="M208.549 180.688C207.959 178.39 205.992 176.946 203.632 176.946C200.812 176.946 198.846 179.441 196.944 181.148C193.404 184.299 189.077 186.532 184.487 187.779C179.308 189.224 173.866 189.092 168.556 189.552C156.426 190.603 144.56 194.936 136.627 204.456C135.709 205.573 136.561 207.411 138.134 207.017C148.297 204.259 157.869 199.532 168.621 199.335C179.57 199.138 189.798 198.744 199.305 192.572C202.845 190.209 209.86 185.809 208.549 180.688Z" fill="url(#paint7_linear_298_584)"/>
<path d="M76.6369 14.77C74.211 11.9467 70.6051 10.4366 66.9991 9.58302C64.1799 8.92644 59.3939 7.94156 56.968 9.77999C56.1157 10.4366 55.7224 11.4214 56.2469 12.4063C57.6892 14.967 61.623 15.9519 64.3111 17.0024C67.5892 18.3155 71.1296 19.4317 74.7356 19.1691C77.0958 19.0378 78.1448 16.4771 76.6369 14.77Z" fill="url(#paint8_linear_298_584)"/>
<path d="M86.0119 0.0625985C83.5205 -0.528325 81.4226 3.21419 80.6358 4.98696C79.3246 7.81026 78.9312 10.3709 79.8491 13.3912C80.1769 14.5074 81.8159 14.5074 82.1438 13.3912C82.9961 10.5022 84.0451 7.54763 85.8152 5.05262C86.7331 3.80512 88.8311 0.71918 86.0119 0.0625985Z" fill="url(#paint9_linear_298_584)"/>
<defs>
<linearGradient id="paint0_linear_298_584" x1="289.729" y1="16.6789" x2="-35.2408" y2="139.22" gradientUnits="userSpaceOnUse">
<stop stopColor="#F9DABE"/>
<stop offset="1" stopColor="#E9B7D4"/>
</linearGradient>
<linearGradient id="paint1_linear_298_584" x1="0.0666931" y1="103.653" x2="260.028" y2="103.653" gradientUnits="userSpaceOnUse">
<stop stopColor="#FFB55C"/>
<stop offset="0.3018" stopColor="#F8B680"/>
<stop offset="1" stopColor="#E9B7D4"/>
</linearGradient>
<linearGradient id="paint2_linear_298_584" x1="243.932" y1="77.1734" x2="75.0161" y2="189.614" gradientUnits="userSpaceOnUse">
<stop stopColor="#F9DABE"/>
<stop offset="1" stopColor="#E9B7D4"/>
</linearGradient>
<linearGradient id="paint3_linear_298_584" x1="245.178" y1="63.9134" x2="26.2302" y2="172.747" gradientUnits="userSpaceOnUse">
<stop stopColor="#F9DABE"/>
<stop offset="1" stopColor="#E9B7D4"/>
</linearGradient>
<linearGradient id="paint4_linear_298_584" x1="325.702" y1="79.5097" x2="170.125" y2="309.068" gradientUnits="userSpaceOnUse">
<stop stopColor="#F9DABE"/>
<stop offset="1" stopColor="#E9B7D4"/>
</linearGradient>
<linearGradient id="paint5_linear_298_584" x1="234.847" y1="44.8047" x2="9.71092" y2="101.25" gradientUnits="userSpaceOnUse">
<stop stopColor="#F9DABE"/>
<stop offset="1" stopColor="#E9B7D4"/>
</linearGradient>
<linearGradient id="paint6_linear_298_584" x1="253.939" y1="62.0396" x2="29.1697" y2="177.236" gradientUnits="userSpaceOnUse">
<stop stopColor="#F9DABE"/>
<stop offset="1" stopColor="#E9B7D4"/>
</linearGradient>
<linearGradient id="paint7_linear_298_584" x1="258.699" y1="21.5724" x2="-24.9138" y2="81.3957" gradientUnits="userSpaceOnUse">
<stop stopColor="#F9DABE"/>
<stop offset="1" stopColor="#E9B7D4"/>
</linearGradient>
<linearGradient id="paint8_linear_298_584" x1="233.946" y1="39.3239" x2="9.3887" y2="95.3216" gradientUnits="userSpaceOnUse">
<stop stopColor="#F9DABE"/>
<stop offset="1" stopColor="#E9B7D4"/>
</linearGradient>
<linearGradient id="paint9_linear_298_584" x1="88.854" y1="4.80069" x2="78.0513" y2="9.16579" gradientUnits="userSpaceOnUse">
<stop stopColor="#F9DABE"/>
<stop offset="1" stopColor="#E9B7D4"/>
</linearGradient>
</defs>
</svg>
