<svg width="260" height="217" viewBox="0 0 260 217" fill="none" xmlns="http://www.w3.org/2000/svg">
<path d="M247.898 143.202C247.827 139.275 247.386 135.298 246.481 131.409C239.64 101.782 208.815 89.9263 185.008 76.3839C156.786 60.3607 134.296 35.9982 104.349 22.6795C76.6082 10.3373 40.5421 1.53889 14.1983 21.7028C-5.40735 36.6768 -4.12357 62.2371 14.4401 77.1791C25.0508 85.6962 46.1358 92.6177 44.1337 109.598C43.0474 118.716 39.2545 127.77 36.5689 136.446C31.1473 154.168 24.801 177.039 39.5712 192.145C54.5974 207.588 75.9021 215.669 97.2314 216.899C115.494 217.939 132.608 210.764 149.542 204.92C157.925 202.062 166.51 199.382 175.339 198.241C185.012 196.989 194.59 198.662 204.264 197.41C230.517 194.033 248.189 168.853 247.898 143.202Z" fill="#F9DABE"/>
<path d="M228.584 36.1906C224.647 28.1649 217.193 21.9696 208.052 21.1951C201.513 20.6319 195.044 22.8848 189.208 25.912C177.255 32.0369 166.145 40.9075 152.645 43.2307C145.684 44.4276 141.114 41.0483 139.074 34.7122C137.106 28.5873 134.715 21.688 130.496 16.7599C116.644 0.56759 78.1584 -7.09012 68.5254 8.53895C56.2907 28.3217 95.6908 74.4889 72.9794 89.414C58.7056 98.7773 52.6513 107.745 44.073 124.853C35.4947 141.89 40.9042 165.68 56.092 173.283C83.6551 187.011 107.504 161.012 129.512 141.088C146.106 126.093 145.052 104.58 165.092 93.8086C184.85 83.1781 227.318 81.5994 231.397 55.3398C232.522 48.5108 231.326 41.8227 228.584 36.1906Z" fill="url(#paint0_linear_298_583)"/>
<path d="M254.687 101.441C251.838 96.2876 248.052 81.3907 239.278 73.9399C223.947 60.9212 207.541 69.3009 188.275 65.5037C181.356 64.1476 163.844 60.128 174.513 47.1882C180.316 40.1514 182.011 28.3122 180.316 21.9384C174.007 -1.45459 140.518 18.1753 126.476 28.1427C120.1 32.6857 114.537 38.9239 107.007 41.5683C97.1712 45.0264 85.7068 42.721 75.4636 44.1449C64.4741 45.7044 54.3665 51.1967 47.7864 60.1471C40.3245 70.3857 41.8169 84.625 48.7362 94.6602C59.7935 110.595 60.6075 140.382 75.4636 152.587C93.1688 167.165 129.325 166.873 150.694 175.485C171.248 183.757 195.873 185.859 216.698 177.383C235.489 169.721 251.295 155.007 257.739 135.411C261.742 123.681 260.249 111.68 254.687 101.441Z" fill="url(#paint1_linear_298_583)"/>
<path d="M39.8395 115.032C38.2851 110.65 33.9807 105.982 29.1581 105.818C22.5022 105.572 20.5492 113.148 23.3391 118.308C25.5711 122.404 29.3574 125.434 32.0676 129.161C34.4191 132.396 38.2054 132.273 39.9591 128.587C41.6729 124.984 41.5135 119.66 39.8395 115.032Z" fill="url(#paint2_linear_298_583)"/>
<path d="M42.662 143.832C42.5178 143.159 42.2776 142.486 41.9412 141.869C41.6529 141.309 41.2204 140.692 40.7879 140.244C39.9229 139.403 39.2982 138.954 38.193 138.505C37.5683 138.225 36.9435 138.225 36.3188 138.113C34.685 137.945 32.6667 139.29 31.994 141.028C31.5134 142.15 31.2251 143.159 31.2251 144.448C31.2251 144.953 31.3212 145.682 31.4173 146.186C31.5134 146.747 31.7537 147.364 32.042 147.868C32.5706 148.878 33.2434 149.775 34.1564 150.391C35.1175 151.064 36.0786 151.288 37.1838 151.345C37.8085 151.345 38.4332 151.232 39.0579 150.952C39.5865 150.784 40.0671 150.56 40.4996 150.167C40.8359 149.887 41.1243 149.606 41.4606 149.27C41.9412 148.766 42.2775 148.149 42.4698 147.476C42.8542 146.299 42.9503 145.121 42.662 143.832Z" fill="url(#paint3_linear_298_583)"/>
<path d="M239.182 61.9846C238.717 60.9037 237.788 60.121 236.511 60.3073C235.427 60.4564 234.266 61.4628 234.382 62.6182C234.769 65.7491 235.505 68.6564 235.118 71.8618C234.769 74.9927 233.685 78.0117 232.099 80.7326C230.86 82.8199 234.034 84.5717 235.427 82.5963C237.517 79.6145 238.988 76.2599 239.607 72.7191C240.188 69.4018 240.498 65.2273 239.182 61.9846Z" fill="url(#paint4_linear_298_583)"/>
<path d="M243.952 84.3544C241.575 83.4651 237.878 82.8587 235.69 84.4353C234.672 85.1629 235.162 86.5777 236.256 86.7394C237.35 86.9011 238.406 86.6182 239.5 86.7394C240.67 86.8607 241.839 87.2245 242.896 87.75C244.518 88.5989 246.14 91.0648 248.064 90.9031C248.554 90.8627 249.007 90.5797 249.12 90.0138C249.912 87.0628 245.989 85.1629 243.952 84.3544Z" fill="url(#paint5_linear_298_583)"/>
<path d="M245.516 77.7793C245.275 77.4042 244.827 77.0973 244.379 76.9609C243.932 76.7904 243.415 76.7904 242.933 76.995H242.898C242.278 76.9268 241.659 77.4042 241.349 77.8816C240.935 78.4954 240.832 79.3139 241.039 80.03C241.314 81.0189 242.347 81.8373 243.381 81.8032C245.344 81.7009 246.583 79.3821 245.516 77.7793Z" fill="url(#paint6_linear_298_583)"/>
<path d="M201.848 179.991C201.376 178.159 199.801 177.008 197.911 177.008C195.653 177.008 194.078 178.997 192.556 180.357C189.721 182.869 186.256 184.648 182.581 185.642C178.434 186.793 174.076 186.688 169.824 187.055C160.112 187.892 150.61 191.345 144.257 198.932C143.522 199.822 144.205 201.287 145.465 200.973C153.602 198.775 161.267 195.008 169.877 194.851C178.644 194.694 186.834 194.38 194.446 189.461C197.281 187.578 202.898 184.072 201.848 179.991Z" fill="url(#paint7_linear_298_583)"/>
<path d="M87.3988 13.6962C86.7389 13.0273 85.758 12.6696 84.7771 12.4674C84.0102 12.3119 82.7082 12.0785 82.0483 12.5141C81.8165 12.6696 81.7095 12.9029 81.8522 13.1362C82.2445 13.7428 83.3146 13.9762 84.0458 14.225C84.9376 14.5361 85.9007 14.8005 86.8816 14.7383C87.5236 14.7072 87.809 14.1006 87.3988 13.6962Z" fill="url(#paint8_linear_298_583)"/>
<path d="M89.6402 8.97429C88.8736 8.76799 88.2281 10.0745 87.986 10.6934C87.5826 11.679 87.4615 12.573 87.7439 13.6274C87.8448 14.017 88.3491 14.017 88.45 13.6274C88.7122 12.6188 89.035 11.5873 89.5797 10.7163C89.8621 10.2808 90.5076 9.2035 89.6402 8.97429Z" fill="url(#paint9_linear_298_583)"/>
<defs>
<linearGradient id="paint0_linear_298_583" x1="292.116" y1="26.1637" x2="-42.0546" y2="175.584" gradientUnits="userSpaceOnUse">
<stop stopColor="#F9DABE"/>
<stop offset="1" stopColor="#E9B7D4"/>
</linearGradient>
<linearGradient id="paint1_linear_298_583" x1="0.0666931" y1="113.643" x2="260.028" y2="113.643" gradientUnits="userSpaceOnUse">
<stop stopColor="#FFB55C"/>
<stop offset="0.3018" stopColor="#F8B680"/>
<stop offset="1" stopColor="#E9B7D4"/>
</linearGradient>
<linearGradient id="paint2_linear_298_583" x1="243.932" y1="80.8737" x2="70.2477" y2="191.199" gradientUnits="userSpaceOnUse">
<stop stopColor="#F9DABE"/>
<stop offset="1" stopColor="#E9B7D4"/>
</linearGradient>
<linearGradient id="paint3_linear_298_583" x1="245.178" y1="66.9779" x2="22.2815" y2="172.705" gradientUnits="userSpaceOnUse">
<stop stopColor="#F9DABE"/>
<stop offset="1" stopColor="#E9B7D4"/>
</linearGradient>
<linearGradient id="paint4_linear_298_583" x1="325.702" y1="83.322" x2="159.97" y2="316.675" gradientUnits="userSpaceOnUse">
<stop stopColor="#F9DABE"/>
<stop offset="1" stopColor="#E9B7D4"/>
</linearGradient>
<linearGradient id="paint5_linear_298_583" x1="234.847" y1="46.953" x2="8.51407" y2="101.102" gradientUnits="userSpaceOnUse">
<stop stopColor="#F9DABE"/>
<stop offset="1" stopColor="#E9B7D4"/>
</linearGradient>
<linearGradient id="paint6_linear_298_583" x1="253.939" y1="65.0142" x2="24.9097" y2="177.024" gradientUnits="userSpaceOnUse">
<stop stopColor="#F9DABE"/>
<stop offset="1" stopColor="#E9B7D4"/>
</linearGradient>
<linearGradient id="paint7_linear_298_583" x1="258.699" y1="22.6067" x2="-25.9982" y2="79.9112" gradientUnits="userSpaceOnUse">
<stop stopColor="#F9DABE"/>
<stop offset="1" stopColor="#E9B7D4"/>
</linearGradient>
<linearGradient id="paint8_linear_298_583" x1="233.946" y1="41.2094" x2="8.20702" y2="94.9262" gradientUnits="userSpaceOnUse">
<stop stopColor="#F9DABE"/>
<stop offset="1" stopColor="#E9B7D4"/>
</linearGradient>
<linearGradient id="paint9_linear_298_583" x1="90.5146" y1="10.6284" x2="87.0833" y2="11.8504" gradientUnits="userSpaceOnUse">
<stop stopColor="#F9DABE"/>
<stop offset="1" stopColor="#E9B7D4"/>
</linearGradient>
</defs>
</svg>
