<svg width="81" height="14" viewBox="0 0 81 14" fill="none" xmlns="http://www.w3.org/2000/svg">
<path d="M4.69307 13.9626C3.80278 13.9626 3.00153 13.8131 2.2893 13.514C1.57707 13.2025 1.01747 12.7664 0.61048 12.2056C0.203493 11.6449 0 10.9907 0 10.243H2.32746C2.37833 10.8037 2.6009 11.2648 2.99517 11.6262C3.40216 11.9875 3.96812 12.1682 4.69307 12.1682C5.44345 12.1682 6.02849 11.9938 6.4482 11.6449C6.86791 11.2835 7.07776 10.8224 7.07776 10.2617C7.07776 9.82555 6.94422 9.47041 6.67713 9.19626C6.42276 8.92212 6.09845 8.71028 5.70418 8.56075C5.32263 8.41122 4.78846 8.24922 4.10167 8.07477C3.23682 7.85047 2.53095 7.62617 1.98406 7.40187C1.44989 7.16511 0.992031 6.80374 0.61048 6.31776C0.22893 5.83178 0.038155 5.1838 0.038155 4.37383C0.038155 3.62617 0.22893 2.97196 0.61048 2.41122C0.992031 1.85047 1.5262 1.42056 2.21299 1.1215C2.89978 0.822429 3.69468 0.672896 4.59768 0.672896C5.88223 0.672896 6.9315 0.990653 7.74547 1.62617C8.57216 2.24922 9.03002 3.10903 9.11905 4.20561H6.71529C6.67713 3.73209 6.4482 3.3271 6.02849 2.99065C5.60879 2.65421 5.05554 2.48598 4.36875 2.48598C3.74555 2.48598 3.23682 2.64174 2.84255 2.95327C2.44828 3.2648 2.25115 3.71339 2.25115 4.29906C2.25115 4.69782 2.37197 5.02804 2.61362 5.28972C2.86799 5.53894 3.18595 5.73832 3.5675 5.88785C3.94905 6.03738 4.4705 6.19938 5.13185 6.37383C6.00942 6.61059 6.72164 6.84735 7.26853 7.08411C7.82814 7.32087 8.29872 7.68847 8.68027 8.18692C9.07454 8.6729 9.27167 9.3271 9.27167 10.1495C9.27167 10.81 9.08726 11.433 8.71842 12.0187C8.36231 12.6044 7.8345 13.0779 7.13499 13.4393C6.4482 13.7882 5.63423 13.9626 4.69307 13.9626Z" fill="#2B2926"/>
<path d="M11.113 8.63551C11.113 7.60125 11.3292 6.68536 11.7616 5.88785C12.2067 5.09034 12.8045 4.47352 13.5549 4.03738C14.318 3.58879 15.1574 3.36449 16.0731 3.36449C16.8998 3.36449 17.6184 3.52648 18.2289 3.85047C18.8521 4.16199 19.3481 4.55452 19.7169 5.02804V3.53271H21.9108V13.8318H19.7169V12.2991C19.3481 12.785 18.8457 13.19 18.2098 13.514C17.5739 13.838 16.8489 14 16.0349 14C15.1319 14 14.3053 13.7757 13.5549 13.3271C12.8045 12.866 12.2067 12.2305 11.7616 11.4206C11.3292 10.5981 11.113 9.66978 11.113 8.63551ZM19.7169 8.6729C19.7169 7.96262 19.5643 7.34579 19.259 6.82243C18.9665 6.29907 18.5786 5.90031 18.0953 5.62617C17.612 5.35202 17.0906 5.21495 16.531 5.21495C15.9714 5.21495 15.4499 5.35202 14.9666 5.62617C14.4833 5.88785 14.089 6.28037 13.7838 6.80374C13.4913 7.31464 13.345 7.92523 13.345 8.63551C13.345 9.34579 13.4913 9.96885 13.7838 10.5047C14.089 11.0405 14.4833 11.4517 14.9666 11.7383C15.4626 12.0125 15.9841 12.1495 16.531 12.1495C17.0906 12.1495 17.612 12.0125 18.0953 11.7383C18.5786 11.4642 18.9665 11.0654 19.259 10.5421C19.5643 10.0062 19.7169 9.38318 19.7169 8.6729Z" fill="#2B2926"/>
<path d="M26.9422 5.06542C27.3111 4.56698 27.8134 4.16199 28.4493 3.85047C29.098 3.52648 29.8166 3.36449 30.6051 3.36449C31.5335 3.36449 32.373 3.58255 33.1233 4.01869C33.8737 4.45483 34.4651 5.07788 34.8975 5.88785C35.33 6.68536 35.5462 7.60125 35.5462 8.63551C35.5462 9.66978 35.33 10.5981 34.8975 11.4206C34.4651 12.2305 33.8674 12.866 33.1043 13.3271C32.3539 13.7757 31.5208 14 30.6051 14C29.7911 14 29.0662 13.8442 28.4303 13.5327C27.8071 13.2212 27.3111 12.8224 26.9422 12.3364V13.8318H24.7674V0H26.9422V5.06542ZM33.3332 8.63551C33.3332 7.92523 33.1806 7.31464 32.8753 6.80374C32.5828 6.28037 32.1885 5.88785 31.6925 5.62617C31.2092 5.35202 30.6878 5.21495 30.1282 5.21495C29.5813 5.21495 29.0598 5.35202 28.5638 5.62617C28.0805 5.90031 27.6862 6.29907 27.381 6.82243C27.0885 7.34579 26.9422 7.96262 26.9422 8.6729C26.9422 9.38318 27.0885 10.0062 27.381 10.5421C27.6862 11.0654 28.0805 11.4642 28.5638 11.7383C29.0598 12.0125 29.5813 12.1495 30.1282 12.1495C30.6878 12.1495 31.2092 12.0125 31.6925 11.7383C32.1885 11.4517 32.5828 11.0405 32.8753 10.5047C33.1806 9.96885 33.3332 9.34579 33.3332 8.63551Z" fill="#2B2926"/>
<path d="M47.2165 3.53271V13.8318H45.0417V12.6168C44.6983 13.0405 44.2468 13.3769 43.6872 13.6262C43.1403 13.8629 42.5553 13.9813 41.9321 13.9813C41.1054 13.9813 40.3614 13.8131 39.7 13.4766C39.0514 13.1402 38.5363 12.6417 38.1547 11.9813C37.7859 11.3209 37.6015 10.5234 37.6015 9.58879V3.53271H39.7572V9.27103C39.7572 10.1931 39.9925 10.9034 40.4631 11.4019C40.9337 11.8879 41.576 12.1308 42.3899 12.1308C43.2039 12.1308 43.8462 11.8879 44.3168 11.4019C44.8001 10.9034 45.0417 10.1931 45.0417 9.27103V3.53271H47.2165Z" fill="#2B2926"/>
<path d="M52.0129 12.0935H56.7823V13.8318H49.4947V12.0935L54.2831 5.27103H49.4947V3.53271H56.7823V5.27103L52.0129 12.0935Z" fill="#2B2926"/>
<path d="M58.341 8.63551C58.341 7.60125 58.5572 6.68536 58.9896 5.88785C59.4348 5.09034 60.0325 4.47352 60.7829 4.03738C61.546 3.58879 62.3854 3.36449 63.3011 3.36449C64.1278 3.36449 64.8464 3.52648 65.4569 3.85047C66.0801 4.16199 66.5761 4.55452 66.9449 5.02804V3.53271H69.1389V13.8318H66.9449V12.2991C66.5761 12.785 66.0737 13.19 65.4378 13.514C64.8019 13.838 64.077 14 63.263 14C62.36 14 61.5333 13.7757 60.7829 13.3271C60.0325 12.866 59.4348 12.2305 58.9896 11.4206C58.5572 10.5981 58.341 9.66978 58.341 8.63551ZM66.9449 8.6729C66.9449 7.96262 66.7923 7.34579 66.4871 6.82243C66.1946 6.29907 65.8066 5.90031 65.3233 5.62617C64.8401 5.35202 64.3186 5.21495 63.759 5.21495C63.1994 5.21495 62.6779 5.35202 62.1946 5.62617C61.7113 5.88785 61.3171 6.28037 61.0118 6.80374C60.7193 7.31464 60.573 7.92523 60.573 8.63551C60.573 9.34579 60.7193 9.96885 61.0118 10.5047C61.3171 11.0405 61.7113 11.4517 62.1946 11.7383C62.6906 12.0125 63.2121 12.1495 63.759 12.1495C64.3186 12.1495 64.8401 12.0125 65.3233 11.7383C65.8066 11.4642 66.1946 11.0654 66.4871 10.5421C66.7923 10.0062 66.9449 9.38318 66.9449 8.6729Z" fill="#2B2926"/>
<path d="M76.1543 8.69159L81 13.8318H78.0621L74.1702 9.40187V13.8318H71.9954V0H74.1702V8.03738L77.9857 3.53271H81L76.1543 8.69159Z" fill="#2B2926"/>
</svg>
