<svg width="143" height="25" viewBox="0 0 143 25" fill="none" xmlns="http://www.w3.org/2000/svg">
<path d="M8.25632 24.9332C6.69008 24.9332 5.28047 24.6662 4.02748 24.1322C2.77448 23.5759 1.78999 22.7971 1.07399 21.7957C0.357998 20.7944 0 19.6262 0 18.2911H4.0946C4.1841 19.2924 4.57566 20.1157 5.26928 20.761C5.98528 21.4063 6.98096 21.729 8.25632 21.729C9.57644 21.729 10.6057 21.4174 11.3441 20.7944C12.0824 20.1491 12.4516 19.3258 12.4516 18.3244C12.4516 17.5456 12.2167 16.9114 11.7468 16.4219C11.2993 15.9324 10.7287 15.5541 10.0351 15.287C9.36388 15.02 8.42414 14.7308 7.21589 14.4192C5.6944 14.0187 4.4526 13.6182 3.49048 13.2176C2.55073 12.7948 1.74524 12.1495 1.07399 11.2817C0.402748 10.4139 0.0671246 9.25679 0.0671246 7.81041C0.0671246 6.4753 0.402748 5.30708 1.07399 4.30574C1.74524 3.30441 2.68498 2.53672 3.89323 2.00267C5.10147 1.46862 6.4999 1.2016 8.08851 1.2016C10.3484 1.2016 12.1943 1.76902 13.6263 2.90387C15.0807 4.01647 15.8862 5.55185 16.0428 7.51001H11.8139C11.7468 6.66444 11.3441 5.94125 10.6057 5.34045C9.86732 4.73965 8.89401 4.43925 7.68577 4.43925C6.5894 4.43925 5.6944 4.7174 5.00078 5.2737C4.30716 5.82999 3.96035 6.63106 3.96035 7.6769C3.96035 8.38896 4.17291 8.97864 4.59803 9.44593C5.04553 9.89097 5.6049 10.247 6.27615 10.514C6.94739 10.781 7.86476 11.0703 9.02826 11.3818C10.5721 11.8046 11.8251 12.2274 12.7872 12.6502C13.7717 13.073 14.5996 13.7294 15.2708 14.6195C15.9645 15.4873 16.3113 16.6555 16.3113 18.1242C16.3113 19.3035 15.9868 20.4161 15.338 21.4619C14.7115 22.5078 13.7829 23.3534 12.5523 23.9987C11.3441 24.6217 9.91206 24.9332 8.25632 24.9332Z" fill="white"/>
<path d="M19.5506 15.4206C19.5506 13.5737 19.9309 11.9381 20.6917 10.514C21.4748 9.0899 22.5264 7.98843 23.8465 7.20961C25.189 6.40854 26.6658 6.00801 28.2768 6.00801C29.7311 6.00801 30.9953 6.29729 32.0693 6.87583C33.1657 7.43213 34.0383 8.13307 34.6872 8.97864V6.30841H38.5468V24.6996H34.6872V21.9626C34.0383 22.8304 33.1545 23.5536 32.0357 24.1322C30.917 24.7107 29.6416 25 28.2096 25C26.621 25 25.1667 24.5995 23.8465 23.7984C22.5264 22.9751 21.4748 21.8402 20.6917 20.3939C19.9309 18.9252 19.5506 17.2675 19.5506 15.4206ZM34.6872 15.4873C34.6872 14.219 34.4187 13.1175 33.8817 12.1829C33.367 11.2483 32.6846 10.5363 31.8344 10.0467C30.9841 9.55719 30.0667 9.31242 29.0823 9.31242C28.0978 9.31242 27.1804 9.55719 26.3301 10.0467C25.4799 10.514 24.7863 11.215 24.2493 12.1495C23.7347 13.0619 23.4773 14.1522 23.4773 15.4206C23.4773 16.6889 23.7347 17.8015 24.2493 18.7583C24.7863 19.7152 25.4799 20.4495 26.3301 20.9613C27.2028 21.4508 28.1201 21.6956 29.0823 21.6956C30.0667 21.6956 30.9841 21.4508 31.8344 20.9613C32.6846 20.4717 33.367 19.7597 33.8817 18.8251C34.4187 17.8683 34.6872 16.7557 34.6872 15.4873Z" fill="white"/>
<path d="M47.3983 9.04539C48.0472 8.15532 48.931 7.43213 50.0498 6.87583C51.1909 6.29729 52.4551 6.00801 53.8423 6.00801C55.4757 6.00801 56.9524 6.39742 58.2725 7.17623C59.5927 7.95505 60.6331 9.06765 61.3938 10.514C62.1546 11.9381 62.5349 13.5737 62.5349 15.4206C62.5349 17.2675 62.1546 18.9252 61.3938 20.3939C60.6331 21.8402 59.5815 22.9751 58.239 23.7984C56.9189 24.5995 55.4533 25 53.8423 25C52.4103 25 51.135 24.7219 50.0162 24.1656C48.9198 23.6093 48.0472 22.8972 47.3983 22.0294V24.6996H43.5722V0H47.3983V9.04539ZM58.6417 15.4206C58.6417 14.1522 58.3732 13.0619 57.8362 12.1495C57.3216 11.215 56.628 10.514 55.7554 10.0467C54.9051 9.55719 53.9877 9.31242 53.0033 9.31242C52.0411 9.31242 51.1238 9.55719 50.2511 10.0467C49.4009 10.5363 48.7073 11.2483 48.1703 12.1829C47.6557 13.1175 47.3983 14.219 47.3983 15.4873C47.3983 16.7557 47.6557 17.8683 48.1703 18.8251C48.7073 19.7597 49.4009 20.4717 50.2511 20.9613C51.1238 21.4508 52.0411 21.6956 53.0033 21.6956C53.9877 21.6956 54.9051 21.4508 55.7554 20.9613C56.628 20.4495 57.3216 19.7152 57.8362 18.7583C58.3732 17.8015 58.6417 16.6889 58.6417 15.4206Z" fill="white"/>
<path d="M83.0661 6.30841V24.6996H79.24V22.53C78.6359 23.2866 77.8416 23.8874 76.8571 24.3324C75.895 24.7552 74.8658 24.9666 73.7694 24.9666C72.315 24.9666 71.0061 24.6662 69.8426 24.0654C68.7015 23.4646 67.7953 22.5745 67.1241 21.3952C66.4752 20.2158 66.1508 18.7917 66.1508 17.1228V6.30841H69.9433V16.5554C69.9433 18.202 70.3572 19.4704 71.1851 20.3605C72.013 21.2283 73.1429 21.6622 74.5749 21.6622C76.0069 21.6622 77.1368 21.2283 77.9647 20.3605C78.8149 19.4704 79.24 18.202 79.24 16.5554V6.30841H83.0661Z" fill="white"/>
<path d="M91.5042 21.5955H99.8948V24.6996H87.074V21.5955L95.4981 9.41255H87.074V6.30841H99.8948V9.41255L91.5042 21.5955Z" fill="white"/>
<path d="M102.637 15.4206C102.637 13.5737 103.017 11.9381 103.778 10.514C104.561 9.0899 105.613 7.98843 106.933 7.20961C108.275 6.40854 109.752 6.00801 111.363 6.00801C112.817 6.00801 114.082 6.29729 115.156 6.87583C116.252 7.43213 117.125 8.13307 117.773 8.97864V6.30841H121.633V24.6996H117.773V21.9626C117.125 22.8304 116.241 23.5536 115.122 24.1322C114.003 24.7107 112.728 25 111.296 25C109.707 25 108.253 24.5995 106.933 23.7984C105.613 22.9751 104.561 21.8402 103.778 20.3939C103.017 18.9252 102.637 17.2675 102.637 15.4206ZM117.773 15.4873C117.773 14.219 117.505 13.1175 116.968 12.1829C116.453 11.2483 115.771 10.5363 114.921 10.0467C114.07 9.55719 113.153 9.31242 112.169 9.31242C111.184 9.31242 110.267 9.55719 109.416 10.0467C108.566 10.514 107.873 11.215 107.336 12.1495C106.821 13.0619 106.564 14.1522 106.564 15.4206C106.564 16.6889 106.821 17.8015 107.336 18.7583C107.873 19.7152 108.566 20.4495 109.416 20.9613C110.289 21.4508 111.206 21.6956 112.169 21.6956C113.153 21.6956 114.07 21.4508 114.921 20.9613C115.771 20.4717 116.453 19.7597 116.968 18.8251C117.505 17.8683 117.773 16.7557 117.773 15.4873Z" fill="white"/>
<path d="M133.975 15.5207L142.5 24.6996H137.331L130.485 16.7891V24.6996H126.659V0H130.485V14.3525L137.197 6.30841H142.5L133.975 15.5207Z" fill="white"/>
</svg>
