<svg width="current" height="auto" viewBox="0 0 120 120" fill="none" xmlns="http://www.w3.org/2000/svg">
<!-- <svg width="120" height="120" viewBox="0 0 120 120" fill="none" xmlns="http://www.w3.org/2000/svg"> -->
<path d="M115.609 108.689L106.292 86.5903C112.332 75.7344 115.067 62.862 113.144 49.5476C108.567 17.8638 79.6698 -4.04135 48.6057 0.626967C17.5145 5.26766 -3.96233 34.7416 0.614685 66.4254C5.1917 98.1092 34.0621 120.042 65.1534 115.374C73.197 114.158 80.5907 111.258 87.0635 107.114L110.165 114.766C113.794 115.981 117.126 112.252 115.636 108.661L115.609 108.689ZM89.1489 76.0383C81.8094 86.5351 69.8929 92.8884 57.0556 92.8884C44.2182 92.8884 32.9788 86.8665 25.5852 76.8946C24.0144 74.7952 24.7185 71.729 26.9393 70.4031C28.8622 69.2706 31.2726 69.7954 32.6267 71.6185C38.3954 79.3254 47.414 83.9661 57.0285 83.9661C66.6429 83.9661 76.1761 79.0768 81.8906 71.0108C83.2177 69.1601 85.6281 68.4971 87.5781 69.6021C89.853 70.8727 90.6113 73.9113 89.1218 76.0659L89.1489 76.0383Z" fill="#FF671E"/>
</svg>
