<svg width="current" height="auto" viewBox="0 0 136 28" fill="none" xmlns="http://www.w3.org/2000/svg">
<!-- <svg width="136" height="28" viewBox="0 0 136 28" fill="none" xmlns="http://www.w3.org/2000/svg"> -->
<path d="M131.564 9.008L131.708 7.256H134.588V19.616C134.588 23.984 131.492 26.024 127.868 26.024C125.084 26.024 122.636 25.088 121.628 23.072L124.796 21.848C125.3 22.904 126.5 23.456 127.868 23.456C130.172 23.456 131.492 22.064 131.492 19.472V18.68C130.388 19.976 128.756 20.696 127.028 20.696C124.172 20.696 121.22 18.296 121.22 14.456V13.16C121.22 9.272 124.172 6.896 127.028 6.896C128.804 6.896 130.46 7.64 131.564 9.008ZM127.916 18.008C129.884 18.008 131.492 16.688 131.492 14.336V13.232C131.492 10.904 129.884 9.584 127.916 9.584C125.924 9.584 124.316 10.904 124.316 13.232V14.336C124.316 16.688 125.924 18.008 127.916 18.008Z" fill="#2B2926"/>
<path d="M112.165 21.944C108.589 21.944 105.493 19.688 105.493 15.296V13.496C105.493 9.128 108.589 6.896 112.165 6.896C115.741 6.896 118.861 9.128 118.861 13.496V15.296C118.861 19.688 115.741 21.944 112.165 21.944ZM112.165 19.136C114.085 19.136 115.765 17.84 115.765 15.224V13.592C115.765 10.976 114.085 9.704 112.165 9.704C110.245 9.704 108.589 10.976 108.589 13.592V15.224C108.589 17.84 110.245 19.136 112.165 19.136Z" fill="#2B2926"/>
<path d="M102.557 21.584H99.4606V2H102.557V21.584Z" fill="#2B2926"/>
<path d="M95.5121 6.896C96.1361 6.896 96.8801 6.992 97.3601 7.208L96.6161 9.992C96.0881 9.8 95.4641 9.704 94.9601 9.704C93.5201 9.704 92.0801 10.736 92.0801 12.896V21.584H88.9841V7.256H91.8641L92.0081 9.176C92.7041 7.784 93.8561 6.896 95.5121 6.896Z" fill="#2B2926"/>
<path d="M86.0433 13.76V15.536H75.9393C76.1073 17.984 77.6913 19.208 79.4913 19.208C81.0513 19.208 82.4193 18.512 82.9953 17.072L85.8033 17.936C84.9633 20.576 82.4433 21.944 79.4913 21.944C75.9393 21.944 72.9153 19.64 72.9153 15.128V13.688C72.9153 9.2 75.9153 6.896 79.4673 6.896C83.0673 6.896 86.0433 9.2 86.0433 13.76ZM75.9633 12.992H82.9953C82.9953 11.024 81.4593 9.608 79.4673 9.608C77.7153 9.608 76.2273 10.736 75.9633 12.992Z" fill="#2B2926"/>
<path d="M65.3784 18.272L68.7144 7.256H71.8824L67.0584 21.584H63.8664L61.0104 11.792L58.1304 21.584H54.9384L50.1144 7.256H53.2824L56.6184 18.272L59.5704 7.256H62.4264L65.3784 18.272Z" fill="#2B2926"/>
<path d="M36.6987 18.512L39.0508 16.928C40.1308 18.704 41.8587 19.328 43.2987 19.328C44.7147 19.328 45.9867 18.848 45.9867 17.72C45.9867 16.616 45.0268 16.208 43.7308 15.872L42.0508 15.44C39.8428 14.888 37.7067 13.76 37.7067 11.048C37.7067 8.336 39.9627 6.896 42.9627 6.896C45.8187 6.896 47.6668 8.192 48.8908 9.968L46.6587 11.624C45.6747 10.328 44.3307 9.512 42.9147 9.512C41.5228 9.512 40.6828 10.088 40.6828 11.048C40.6828 12.032 41.3547 12.488 42.6507 12.848L44.3067 13.256C46.5147 13.808 48.9627 14.864 48.9627 17.72C48.9627 20.624 46.1787 21.944 43.2267 21.944C40.3228 21.944 37.9468 20.768 36.6987 18.512Z" fill="#2B2926"/>
<path d="M29.4118 6.896C32.4118 6.896 34.8118 9.2 34.8118 12.92V21.584H31.7158V13.064C31.7158 10.64 30.3958 9.704 28.5478 9.704C26.7478 9.704 25.2598 10.904 25.2598 12.872V21.584H22.1638V7.256H25.0438L25.1877 9.08C26.0278 7.76 27.5158 6.896 29.4118 6.896Z" fill="#2B2926"/>
<path d="M19.928 21.584H16.76L14.696 15.8H7.232L5.168 21.584H2L9.032 2H12.872L19.928 21.584ZM10.976 5.264L8.216 13.016H13.712L10.976 5.264Z" fill="#2B2926"/>
</svg>
