<!-- <svg width="120" height="120" viewBox="0 0 120 120" fill="none" xmlns="http://www.w3.org/2000/svg"> -->
<svg width="current" height="auto" viewBox="0 0 120 120" fill="none" xmlns="http://www.w3.org/2000/svg">
<path d="M107.904 93.5187C106.109 97.6663 103.984 101.484 101.521 104.995C98.165 109.78 95.417 113.092 93.299 114.932C90.016 117.951 86.4987 119.497 82.732 119.585C80.028 119.585 76.7667 118.816 72.971 117.255C69.1623 115.701 65.6623 114.932 62.4623 114.932C59.106 114.932 55.5063 115.701 51.656 117.255C47.8 118.816 44.6937 119.629 42.3187 119.71C38.7067 119.863 35.1063 118.273 31.5127 114.932C29.2188 112.931 26.3498 109.501 22.9129 104.643C19.2254 99.4547 16.1938 93.438 13.8187 86.579C11.2751 79.1703 10 71.996 10 65.0503C10 57.094 11.7192 50.232 15.1627 44.4817C17.869 39.8627 21.4693 36.219 25.9754 33.5443C30.4813 30.8696 35.3503 29.5065 40.5937 29.4193C43.4627 29.4193 47.2247 30.3068 51.9003 32.051C56.5623 33.801 59.556 34.6883 60.8683 34.6883C61.8497 34.6883 65.175 33.6507 70.8127 31.582C76.144 29.6634 80.6433 28.869 84.3293 29.1819C94.3177 29.988 101.822 33.9253 106.812 41.019C97.8793 46.4317 93.4603 54.0127 93.5483 63.7377C93.629 71.313 96.377 77.6167 101.778 82.6217C104.225 84.9447 106.959 86.7403 110 88.0153C109.34 89.928 108.644 91.76 107.904 93.5187ZM84.9963 3.37507C84.9963 9.3124 82.8273 14.8561 78.5037 19.9873C73.286 26.0872 66.975 29.6121 60.1313 29.0559C60.044 28.3436 59.9933 27.5939 59.9933 26.8061C59.9933 21.1063 62.4747 15.0063 66.881 10.0188C69.081 7.4935 71.879 5.39377 75.272 3.71877C78.6573 2.06873 81.86 1.15627 84.8717 1C84.9597 1.79373 84.9963 2.5876 84.9963 3.37507Z" fill="white"/>
</svg>
