<!-- <svg width="100" height="100" viewBox="0 0 100 100" fill="none" xmlns="http://www.w3.org/2000/svg"> -->
<svg width="current" height="auto" viewBox="0 0 100 100" fill="none" xmlns="http://www.w3.org/2000/svg">
<path d="M47.3257 47.7649L5.37512 91.7162C5.85674 93.3785 6.70923 94.91 7.86839 96.1951C9.02755 97.4803 10.4632 98.4858 12.0672 99.1358C13.6712 99.7858 15.4018 100.063 17.1286 99.9479C18.8554 99.8322 20.5335 99.3264 22.0366 98.4683L69.2388 71.5849L47.3257 47.7649Z" fill="#EA4335"/>
<path d="M89.7452 40.2939L69.3326 28.6027L46.3567 48.7653L69.4264 71.5224L89.6827 59.9563C90.9765 59.2839 92.1246 58.3624 93.0611 57.2448C93.9976 56.1273 94.704 54.8357 95.1397 53.4442C95.5755 52.0528 95.7319 50.589 95.6001 49.1369C95.4683 47.6848 95.0508 46.2731 94.3717 44.9828C93.312 42.9867 91.6789 41.3536 89.6827 40.2939H89.7452Z" fill="#FBBC04"/>
<path d="M5.37512 8.31512C5.12551 9.25336 4.99941 10.2201 5 11.191V88.8403C4.99941 89.8112 5.12551 90.7779 5.37512 91.7162L48.7637 48.8903L5.37512 8.31512Z" fill="#4285F4"/>
<path d="M47.6383 50.0157L69.3326 28.6027L22.1929 1.59427C20.4189 0.557017 18.4023 0.00703097 16.3473 2.23574e-05C13.8652 -0.00489639 11.4496 0.801922 9.46867 2.29749C7.48775 3.79306 6.05019 5.89534 5.37512 8.28386L47.6383 50.0157Z" fill="#34A853"/>
</svg>
