<!-- <svg width="220" height="36" viewBox="0 0 220 36" fill="none" xmlns="http://www.w3.org/2000/svg"> -->
<svg width="current" height="auto" viewBox="0 0 220 36" fill="none" xmlns="http://www.w3.org/2000/svg">
<g clip-path="url(#clip0_27_1809)">
<path d="M0 0V35.1698H35.1698V0H0ZM12.1838 11.6817C12.1838 10.9617 12.3201 10.2883 12.5935 9.66066C12.866 9.03401 13.2445 8.48422 13.7291 8.01325C14.2137 7.54034 14.7839 7.16765 15.4417 6.89519C16.1005 6.62176 16.8196 6.48553 17.6019 6.48553C18.3843 6.48553 19.0858 6.61884 19.7456 6.88643C20.4034 7.15306 20.9707 7.51893 21.4494 7.98503C21.9272 8.45016 22.3028 8.99606 22.5763 9.62369C22.8487 10.2523 22.9859 10.9257 22.9859 11.6448V11.6817C22.9859 12.4018 22.8487 13.0761 22.5763 13.7028C22.3018 14.3295 21.9233 14.8793 21.4407 15.3502C20.9561 15.8231 20.3839 16.1958 19.7261 16.4683C19.0683 16.7417 18.3483 16.8779 17.5659 16.8779C16.7836 16.8779 16.0829 16.7446 15.4242 16.477C14.7654 16.2104 14.1971 15.8445 13.7193 15.3784C13.2406 14.9133 12.865 14.3674 12.5925 13.7398C12.3181 13.1131 12.1829 12.4378 12.1829 11.7187V11.6817H12.1838ZM16.3661 28.6872L14.2545 26.5756C14.1884 26.6067 14.1319 26.6476 14.0628 26.6758C13.405 26.9492 12.685 27.0855 11.9026 27.0855C11.1203 27.0855 10.4187 26.9522 9.76089 26.6855C9.10309 26.4179 8.53385 26.0511 8.05704 25.586C7.57829 25.1208 7.20171 24.5749 6.93022 23.9473C6.65679 23.3207 6.52056 22.6473 6.52056 21.9262V21.8893C6.52056 21.1692 6.65679 20.4958 6.93022 19.8692C7.20268 19.2425 7.58121 18.6917 8.0658 18.2198C8.55039 17.7488 9.12061 17.3762 9.77938 17.1017C10.4381 16.8293 11.1572 16.6921 11.9396 16.6921C12.7219 16.6921 13.4235 16.8254 14.0823 17.093C14.7411 17.3596 15.3074 17.7255 15.7871 18.1916C16.2649 18.6567 16.6405 19.2046 16.9139 19.8312C17.1864 20.4579 17.3236 21.1312 17.3236 21.8513V21.8883C17.3236 22.6093 17.1864 23.2827 16.9139 23.9094C16.7884 24.1984 16.6347 24.4669 16.4624 24.7248L18.395 26.6563L16.3661 28.6852V28.6872ZM28.6502 27.8863H19.2805V17.4929H22.151V25.4205H28.6502V27.8863Z" fill="#FF671D"/>
<path d="M13.8032 19.9614C13.5668 19.7074 13.2865 19.505 12.9654 19.3552C12.6424 19.2073 12.2872 19.1323 11.9038 19.1323C11.4941 19.1323 11.1312 19.2043 10.814 19.3464C10.4967 19.4904 10.2272 19.685 10.0034 19.9332C9.78056 20.1813 9.61027 20.4703 9.49156 20.7992C9.37381 21.1281 9.31543 21.4784 9.31543 21.853V21.889C9.31543 22.2617 9.37673 22.613 9.50129 22.9429C9.62584 23.2727 9.80586 23.5637 10.0413 23.8177C10.2768 24.0716 10.5542 24.274 10.8694 24.4219C11.1866 24.5718 11.5428 24.6467 11.9408 24.6467C12.3388 24.6467 12.7144 24.5747 13.0306 24.4326C13.3478 24.2886 13.6174 24.094 13.8412 23.8449C14.064 23.5978 14.2343 23.3088 14.353 22.9799C14.4708 22.651 14.5292 22.2987 14.5292 21.927V21.89C14.5292 21.5173 14.4678 21.167 14.3433 20.8381C14.2187 20.5092 14.0387 20.2173 13.8032 19.9624V19.9614Z" fill="#FF671D"/>
<path d="M15.7044 13.6092C15.9409 13.8631 16.2163 14.0655 16.5335 14.2154C16.8507 14.3633 17.2068 14.4382 17.6048 14.4382C18.0028 14.4382 18.3765 14.3662 18.6937 14.2242C19.0109 14.0801 19.2805 13.8855 19.5043 13.6374C19.7271 13.3893 19.8984 13.1003 20.0161 12.7714C20.1339 12.4425 20.1922 12.0902 20.1922 11.7185V11.6825C20.1922 11.3098 20.1309 10.9585 20.0064 10.6296C19.8818 10.3007 19.7018 10.0088 19.4663 9.75386C19.2299 9.49989 18.9496 9.29749 18.6266 9.14958C18.3045 8.99973 17.9503 8.9248 17.5659 8.9248C17.1562 8.9248 16.7923 8.99681 16.4761 9.13888C16.1588 9.2829 15.8893 9.47654 15.6655 9.72564C15.4427 9.97572 15.2724 10.2628 15.1537 10.5917C15.0359 10.9206 14.9775 11.2728 14.9775 11.6455V11.6825C14.9775 12.0532 15.0388 12.4055 15.1634 12.7344C15.2879 13.0633 15.467 13.3552 15.7035 13.6092H15.7044Z" fill="#FF671D"/>
<path d="M60.8491 31.3291H69.2516V19.3555H60.8491V31.3291ZM62.1394 20.5562H67.9311V30.0992H62.1394V20.5562Z" fill="#444344"/>
<path d="M60.849 31.329V31.9128H69.8353V18.7715H60.2651V31.9128H60.849V31.329H61.4328V19.9392H68.6676V30.7451H60.849V31.329ZM62.1393 20.5561V21.1399H67.3472V29.5152H62.7231V20.5561H62.1393H61.5554V30.6829H68.5148V19.9723H61.5554V20.5561H62.1393Z" fill="#444344"/>
<path d="M69.2516 3.66064H67.9312V17.1649H69.2516V10.8633H74.1131V9.63239H69.2516V3.66064Z" fill="#444344"/>
<path d="M69.2515 3.6605V3.07666H67.3472V17.7486H69.8353V11.447H74.6968V9.04841H69.8353V3.07666H69.2515V3.6605H68.6676V10.2161H73.5291V10.2793H68.6676V16.581H68.5149V4.24435H69.2515V3.6605H68.6676H69.2515Z" fill="#444344"/>
<path d="M56.153 29.9639C54.8627 30.0544 53.8273 30.0992 53.0469 30.0992H52.3269V25.8974H58.8387V19.3555H50.8857V20.5562H57.5182V24.6675H51.0366V31.3301H52.6275C53.6678 31.3301 54.8432 31.2892 56.154 31.2104C57.4647 31.1296 58.6003 31.0197 59.5597 30.8805L59.44 29.6798C58.5399 29.779 57.4443 29.8744 56.154 29.9649L56.153 29.9639Z" fill="#444344"/>
<path d="M56.1533 29.9638L56.1125 29.3809C54.8309 29.4704 53.8053 29.5142 53.0473 29.5142H52.9111V26.4802H59.4229V18.7705H50.3022V21.139H56.9347V24.0825H50.4531V31.9128H52.6279C53.6827 31.9128 54.8698 31.872 56.1893 31.7922C57.5117 31.7114 58.6619 31.5995 59.6437 31.4574L60.1964 31.3776L59.9619 29.0345L59.3752 29.0997C58.4858 29.198 57.3969 29.2933 56.1125 29.3828L56.1533 29.9657L56.1942 30.5486C57.4903 30.4581 58.5928 30.3617 59.5036 30.2615L59.4394 29.6816L58.8585 29.74L58.9782 30.9407L59.5591 30.8823L59.4754 30.3043C58.5364 30.4406 57.4154 30.5496 56.1173 30.6293C54.8154 30.7082 53.6516 30.7481 52.6269 30.7481H51.6198V25.2531H58.1014V19.9742H51.469V19.9411H58.2542V25.3154H51.7424V30.6848H53.0463C53.8481 30.6848 54.8942 30.6391 56.1932 30.5486L56.1524 29.9657L56.1533 29.9638Z" fill="#444344"/>
<path d="M54.2916 12.3481C54.5592 12.0104 54.7937 11.6611 55.0107 11.3059L63.3996 16.5956L64.0895 15.5456L55.5955 10.1937C56.1142 9.00754 56.3769 7.73185 56.3769 6.36273V4.7124H55.0866V6.36273C55.0866 8.4237 54.4307 10.2239 53.121 11.7643C51.8103 13.3056 49.8953 14.7458 47.374 16.0857L47.9141 17.1658C50.7749 15.7052 52.9001 14.0996 54.2906 12.3491L54.2916 12.3481Z" fill="#444344"/>
<path d="M54.2917 12.3484L54.7491 12.7114C55.0361 12.3494 55.2843 11.9797 55.5091 11.6089L55.0099 11.3053L54.6985 11.7996L63.5729 17.3948L64.9041 15.3679L55.907 9.69877L55.5957 10.1931L56.1309 10.4276C56.6826 9.16748 56.9619 7.80615 56.9619 6.36308V4.12891H54.5039V6.36308C54.5039 7.33129 54.3501 8.22651 54.0475 9.05946C53.7439 9.89241 53.2904 10.665 52.6774 11.3861C51.4338 12.8506 49.5782 14.2547 47.1017 15.5703L46.5986 15.8379L47.6564 17.9543L48.1808 17.6867C51.0903 16.2008 53.2846 14.5544 54.7491 12.7134L54.2917 12.3504L53.8344 11.9874C52.5169 13.6475 50.4608 15.2132 47.6495 16.6475L47.9152 17.1671L48.4377 16.9063L47.8977 15.8262L47.3751 16.087L47.6495 16.6027C50.2146 15.2385 52.1899 13.7623 53.5668 12.1441C54.2635 11.3258 54.7929 10.4276 55.1451 9.46037C55.4974 8.49314 55.6716 7.45681 55.6716 6.36503V5.29854H55.7942V6.36503C55.7942 7.65921 55.547 8.85025 55.0614 9.9615L54.86 10.4218L63.2752 15.724L63.2265 15.798L54.8201 10.4977L54.5117 11.0046C54.3044 11.3452 54.0835 11.6741 53.8344 11.9874L54.2917 12.3504V12.3484Z" fill="#444344"/>
<path d="M87.4071 24.9225C84.8664 25.0928 82.715 25.1774 80.9547 25.1774H75.9434L76.0037 26.3782H80.9557C83.0361 26.3782 85.3218 26.2935 87.8129 26.1233C90.304 25.953 92.5391 25.7185 94.5193 25.4178L94.3996 24.2773C92.2793 24.5381 89.9478 24.7532 87.4081 24.9225H87.4071Z" fill="#444344"/>
<path d="M87.4074 24.9221L87.3684 24.3392C84.8365 24.5095 82.6967 24.5932 80.9559 24.5932H75.3306L75.4493 26.9617H80.9559C83.0519 26.9617 85.3513 26.876 87.853 26.7048C90.3568 26.5345 92.6075 26.2971 94.6071 25.9944L95.1589 25.9107L94.9185 23.625L94.3288 23.697C92.2212 23.9558 89.9004 24.1699 87.3694 24.3392L87.4083 24.9221L87.4473 25.505C89.9967 25.3347 92.3379 25.1187 94.4719 24.8569L94.4008 24.277L93.8199 24.3383L93.9396 25.4787L94.5205 25.4174L94.433 24.8404C92.4722 25.1372 90.2517 25.3717 87.7742 25.54C85.2948 25.7093 83.0217 25.794 80.9569 25.794H76.5605L76.5586 25.7609H80.9559C82.7347 25.7609 84.8968 25.6753 87.4473 25.505L87.4083 24.9221H87.4074Z" fill="#444344"/>
<path d="M81.1805 19.1451C82.2305 19.6657 83.4157 19.9255 84.7362 19.9255C86.0566 19.9255 87.2418 19.6657 88.2927 19.1451C89.3427 18.6245 90.1776 17.8392 90.7984 16.7893C91.4182 15.7393 91.7287 14.4636 91.7287 12.9632V12.2431C91.7287 10.7436 91.4182 9.46789 90.7984 8.41697C90.1785 7.36703 89.3427 6.58176 88.2927 6.06117C87.2428 5.54155 86.0566 5.28076 84.7362 5.28076C83.4157 5.28076 82.2305 5.54155 81.1805 6.06117C80.1306 6.58176 79.2947 7.36703 78.6749 8.41697C78.0541 9.46692 77.7446 10.7426 77.7446 12.2431V12.9632C77.7446 14.4636 78.0541 15.7393 78.6749 16.7893C79.2947 17.8392 80.1296 18.6245 81.1805 19.1451ZM79.0349 12.2723C79.0349 10.4322 79.5545 9.01152 80.5957 8.0112C81.6359 7.01088 83.0158 6.51073 84.7371 6.51073C86.4585 6.51073 87.8383 7.01088 88.8785 8.0112C89.9187 9.01152 90.4384 10.4322 90.4384 12.2723V12.933C90.4384 14.7536 89.9178 16.1694 88.8785 17.1795C87.8373 18.1895 86.4575 18.6946 84.7371 18.6946C83.0167 18.6946 81.6359 18.1895 80.5957 17.1795C79.5555 16.1694 79.0349 14.7536 79.0349 12.933V12.2723Z" fill="#444344"/>
<path d="M81.1804 19.145L80.9216 19.6685C82.0601 20.2329 83.3406 20.5102 84.737 20.5092C86.1334 20.5092 87.4139 20.2329 88.5524 19.6685C89.1265 19.3834 89.6471 19.0233 90.1074 18.5913C90.5676 18.1592 90.9656 17.6552 91.3013 17.0859C91.6419 16.5079 91.8959 15.8715 92.0633 15.1826C92.2306 14.4937 92.3124 13.7532 92.3124 12.963V12.243C92.3124 11.4528 92.2306 10.7123 92.0633 10.0234C91.8959 9.33444 91.6419 8.69805 91.3013 8.12005C90.9656 7.5508 90.5667 7.04675 90.1074 6.61471C89.6481 6.18266 89.1275 5.82262 88.5524 5.53751C87.4149 4.97411 86.1334 4.69581 84.737 4.69678C83.3406 4.69678 82.0601 4.97411 80.9225 5.53751C80.3475 5.82262 79.8269 6.18266 79.3676 6.61471C78.9073 7.04675 78.5093 7.5508 78.1736 8.12005C77.8321 8.69708 77.5781 9.33444 77.4107 10.0234C77.2434 10.7123 77.1616 11.4528 77.1616 12.243V12.963C77.1616 13.7532 77.2434 14.4937 77.4107 15.1826C77.5781 15.8715 77.8321 16.5079 78.1736 17.0859C78.5093 17.6552 78.9083 18.1592 79.3676 18.5913C79.8269 19.0233 80.3475 19.3834 80.9225 19.6685L81.1814 19.145L81.4402 18.6214C80.9644 18.386 80.5421 18.0931 80.1665 17.7398C79.7909 17.3866 79.462 16.9731 79.1778 16.4924C78.8986 16.0195 78.6874 15.493 78.5444 14.9072C78.4013 14.3205 78.3283 13.6734 78.3283 12.963V12.243C78.3283 11.5326 78.4013 10.8855 78.5444 10.2997C78.6874 9.71297 78.8986 9.18751 79.1778 8.7146C79.462 8.23292 79.7909 7.81937 80.1665 7.46614C80.5421 7.11292 80.9644 6.821 81.4402 6.58454C82.4036 6.10871 83.4934 5.86544 84.737 5.86447C85.9816 5.86447 87.0714 6.10773 88.0347 6.58454C88.5106 6.82002 88.9329 7.11292 89.3085 7.46614C89.6841 7.81937 90.013 8.23292 90.2971 8.7146C90.5764 9.18751 90.7876 9.71394 90.9306 10.3007C91.0736 10.8875 91.1466 11.5346 91.1466 12.2439V12.964C91.1466 13.6743 91.0727 14.3214 90.9306 14.9082C90.7876 15.495 90.5764 16.0214 90.2971 16.4943C90.013 16.976 89.6841 17.3895 89.3085 17.7428C88.9329 18.096 88.5106 18.3879 88.0347 18.6244C87.0724 19.1012 85.9825 19.3435 84.738 19.3435C83.4934 19.3435 82.4036 19.1002 81.4412 18.6234L81.1824 19.1469L81.1804 19.145ZM79.0348 12.2721H79.6186C79.6186 11.4071 79.7412 10.6607 79.9728 10.0273C80.2054 9.3938 80.545 8.87029 80.9994 8.43143C81.4616 7.98771 81.992 7.65881 82.6089 7.43403C83.2258 7.21023 83.9313 7.09346 84.736 7.09346C85.5398 7.09346 86.2462 7.21023 86.8632 7.43403C87.4801 7.65784 88.0104 7.98771 88.4736 8.43143C88.928 8.86931 89.2676 9.39283 89.5002 10.0263C89.7318 10.6598 89.8544 11.4051 89.8544 12.2712V12.9319C89.8544 13.7872 89.7318 14.5268 89.5002 15.1583C89.2676 15.7898 88.928 16.3162 88.4716 16.76C88.0085 17.2085 87.4781 17.5413 86.8622 17.7671C86.2462 17.9928 85.5408 18.1106 84.737 18.1106C83.9332 18.1106 83.2278 17.9928 82.6118 17.7671C81.9949 17.5413 81.4655 17.2085 81.0023 16.76L80.9994 16.758L81.0014 16.76C80.545 16.3153 80.2054 15.7898 79.9719 15.1583C79.7403 14.5268 79.6177 13.7872 79.6177 12.9319V12.2712H78.45V12.9319C78.45 13.8972 78.5882 14.7768 78.8762 15.5602C79.1632 16.3445 79.604 17.0305 80.1879 17.5968C80.7649 18.1583 81.4451 18.5835 82.209 18.8628C82.9728 19.142 83.8184 19.2773 84.736 19.2773C85.6527 19.2773 86.4983 19.142 87.2621 18.8628C88.026 18.5835 88.7062 18.1583 89.2842 17.5968C89.868 17.0305 90.3078 16.3435 90.5959 15.5602C90.8839 14.7759 91.0221 13.8972 91.0221 12.9319V12.2712C91.0221 11.2962 90.8849 10.4116 90.5959 9.62539C90.3088 8.83915 89.867 8.15216 89.2822 7.58972C88.7042 7.03313 88.024 6.61276 87.2611 6.33641C86.4973 6.06005 85.6527 5.92577 84.737 5.92577C83.8204 5.92577 82.9757 6.05908 82.2119 6.33641C81.449 6.61276 80.7688 7.03313 80.1908 7.58972C79.605 8.15216 79.1642 8.83915 78.8771 9.62539C78.5891 10.4126 78.4519 11.2971 78.4519 12.2712H79.0358L79.0348 12.2721Z" fill="#444344"/>
<path d="M98.6306 3.66064H97.3403V31.1791H98.6306V3.66064Z" fill="#444344"/>
<path d="M97.3402 31.179V31.7628H99.2143V3.07666H96.7563V31.7628H97.3402V31.179H97.924V4.24435H98.0466V30.5952H97.3402V31.179H97.924H97.3402Z" fill="#444344"/>
<path d="M111.084 12.6177C111.415 12.2177 111.704 11.8071 111.957 11.3858L120.388 16.8943L121.048 15.8142L112.516 10.2784C112.956 9.23333 113.186 8.12987 113.186 6.96121V6.36082H119.938V5.13086H105.144V6.36082H111.866V6.96121C111.866 8.86162 111.21 10.5518 109.9 12.0329C108.589 13.5139 106.644 14.9735 104.063 16.4146L104.694 17.4646C107.555 15.9242 109.686 14.3089 111.086 12.6177H111.084Z" fill="#444344"/>
<path d="M111.084 12.618L111.534 12.9907C111.884 12.5684 112.19 12.1325 112.457 11.6868L111.956 11.3861L111.637 11.8746L120.572 17.7121L121.843 15.6336L112.833 9.78833L112.515 10.2778L113.053 10.5045C113.524 9.39034 113.769 8.20514 113.769 6.96058V6.94404H120.521V4.54639H104.559V6.94404H111.281V6.96058C111.281 7.84413 111.129 8.66638 110.828 9.44289C110.528 10.2194 110.075 10.9511 109.461 11.645C108.216 13.054 106.321 14.4844 103.777 15.9041L103.251 16.198L104.478 18.2424L104.968 17.9787C107.872 16.414 110.062 14.7636 111.533 12.9907L111.083 12.618L110.634 12.2453C109.303 13.8529 107.233 15.4341 104.415 16.9501L104.691 17.4639L105.191 17.1632L104.561 16.1133L104.061 16.414L104.345 16.9239C106.963 15.4613 108.959 13.9716 110.334 12.4195C111.03 11.6333 111.561 10.7799 111.915 9.86617C112.269 8.95246 112.447 7.97939 112.447 6.96155V5.77732H105.725V5.71505H119.351V5.77732H112.599V6.96155C112.599 8.05334 112.387 9.07507 111.976 10.0511L111.785 10.5016L120.252 15.9946L120.202 16.0763L111.767 10.5648L111.455 11.0854C111.217 11.4824 110.945 11.8688 110.634 12.2453L111.083 12.618H111.084Z" fill="#444344"/>
<path d="M110.604 25.8974H126.509V19.3555H109.164V20.5562H125.218V24.6665H109.314V31.3291H127.799V30.0992H110.604V25.8974Z" fill="#444344"/>
<path d="M110.604 25.8973V26.4811H127.093V18.7715H108.58V21.1399H124.634V24.0825H108.73V31.9128H128.383V29.5152H111.188V25.8973H110.604V26.4811V25.8973H110.02V30.6829H127.215V30.7451H109.897V25.2502H125.802V19.9723H109.748V19.9392H125.925V25.3135H110.02V25.8973H110.604Z" fill="#444344"/>
<path d="M126.508 3.66064H125.218V17.1649H126.508V3.66064Z" fill="#444344"/>
<path d="M126.509 3.6605V3.07666H124.634V17.7486H127.093V3.07666H126.509V3.6605H125.926V16.581H125.802V4.24435H126.509V3.6605H125.926H126.509Z" fill="#444344"/>
<path d="M149.855 18.68C150.895 18.1497 151.72 17.3596 152.331 16.3096C152.557 15.9194 152.728 15.4874 152.871 15.0339H159.698V24.8172H161.018V3.66064H159.698V8.19224H152.482C152.43 8.08812 152.389 7.97622 152.331 7.87697C151.72 6.82702 150.895 6.03689 149.855 5.50656C148.815 4.97624 147.644 4.71156 146.344 4.71156C145.044 4.71156 143.839 4.97721 142.789 5.50656C141.739 6.03689 140.908 6.82702 140.298 7.87697C139.687 8.92691 139.382 10.2133 139.382 11.7323V12.4825C139.382 13.983 139.686 15.2587 140.298 16.3086C140.908 17.3586 141.738 18.1497 142.789 18.679C143.839 19.2094 145.024 19.474 146.344 19.474C147.665 19.474 148.815 19.2084 149.855 18.679V18.68ZM159.698 9.42221V13.8331H153.143C153.204 13.403 153.246 12.9584 153.246 12.4825V11.7323C153.246 10.8877 153.142 10.1218 152.953 9.42221H159.699H159.698ZM142.248 16.7446C141.217 15.7238 140.702 14.2944 140.702 12.4533V11.7634C140.702 9.9029 141.217 8.46276 142.248 7.442C143.277 6.42125 144.643 5.91136 146.343 5.91136C148.043 5.91136 149.379 6.42125 150.41 7.442C151.439 8.46276 151.955 9.9029 151.955 11.7634V12.4533C151.955 14.2944 151.439 15.7248 150.41 16.7446C149.379 17.7653 148.024 18.2752 146.343 18.2752C144.663 18.2752 143.277 17.7653 142.248 16.7446Z" fill="#444344"/>
<path d="M149.855 18.6799L150.12 19.2005C150.689 18.9105 151.204 18.5466 151.657 18.1116C152.111 17.6766 152.505 17.1716 152.834 16.6024C153.091 16.1596 153.275 15.6867 153.426 15.2089L152.869 15.0338V15.6176H159.113V25.4009H161.601V3.07666H159.113V7.60826H152.481V8.1921L153.003 7.92937C152.986 7.89726 152.966 7.85055 152.94 7.79217C152.913 7.73379 152.88 7.66275 152.834 7.58393C152.504 7.01468 152.11 6.50966 151.657 6.0747C151.203 5.63973 150.689 5.2758 150.12 4.98583C148.992 4.40977 147.723 4.12661 146.343 4.12661C144.945 4.12661 143.663 4.40977 142.525 4.98486C141.951 5.27483 141.432 5.63876 140.975 6.07372C140.517 6.50869 140.122 7.01371 139.792 7.58393L139.787 7.59172L139.792 7.58296C139.457 8.16096 139.207 8.80027 139.042 9.4931C138.878 10.1859 138.798 10.9332 138.798 11.7321V12.4824C138.798 13.2725 138.878 14.012 139.043 14.7C139.208 15.388 139.457 16.0244 139.792 16.6024C140.123 17.1716 140.518 17.6776 140.975 18.1126C141.432 18.5475 141.951 18.9115 142.525 19.2014C143.663 19.7765 144.946 20.0597 146.343 20.0597C147.723 20.0597 148.991 19.7765 150.12 19.2005L149.855 18.6799L149.59 18.1593C148.639 18.6439 147.566 18.8901 146.344 18.891C145.101 18.891 144.014 18.6429 143.051 18.1583C142.575 17.918 142.153 17.6212 141.78 17.266C141.407 16.9108 141.082 16.4963 140.802 16.0156C140.528 15.5427 140.32 15.0163 140.179 14.4285C140.039 13.8418 139.966 13.1927 139.966 12.4824V11.7321C139.966 11.0111 140.038 10.3552 140.179 9.76264C140.32 9.17004 140.528 8.64166 140.802 8.16972C141.082 7.68902 141.407 7.27449 141.78 6.91932C142.154 6.56415 142.575 6.26736 143.052 6.02702C144.014 5.54243 145.101 5.29527 146.345 5.29429C147.567 5.29429 148.64 5.54145 149.591 6.02604C150.062 6.26639 150.481 6.56221 150.852 6.91835C151.223 7.27352 151.548 7.68902 151.828 8.17069C151.84 8.19016 151.857 8.22519 151.879 8.27384C151.901 8.32249 151.928 8.3838 151.964 8.45483L152.125 8.77595H160.283V4.24435H160.436V24.2332H160.283V14.4499H152.444L152.316 14.8586C152.181 15.2858 152.025 15.6779 151.828 16.0166C151.548 16.4983 151.224 16.9128 150.852 17.2689C150.481 17.6241 150.063 17.9209 149.592 18.1603L149.857 18.6809L149.855 18.6799ZM159.698 9.42207H159.114V13.2492H153.143V13.833L153.721 13.9157C153.785 13.4662 153.83 12.9923 153.83 12.4824V11.7321C153.83 10.8389 153.719 10.0215 153.517 9.27027L152.953 9.42207V10.0059H159.698V9.42207V8.83822H152.191L152.39 9.57386C152.565 10.2229 152.662 10.9352 152.663 11.7321V12.4824C152.663 12.9232 152.624 13.3387 152.566 13.7503L152.47 14.4168H160.282V8.83822H159.698V9.42207H159.698ZM142.247 16.7444L142.658 16.3299C142.206 15.8813 141.869 15.3491 141.637 14.7088C141.407 14.0695 141.285 13.3192 141.285 12.4532V11.7633C141.285 10.8865 141.407 10.1295 141.637 9.48434C141.869 8.8392 142.206 8.30498 142.658 7.85737C143.116 7.40391 143.64 7.06918 144.248 6.84148C144.856 6.61475 145.551 6.49604 146.343 6.49604C147.124 6.49604 147.811 6.61475 148.415 6.84148C149.018 7.06918 149.54 7.40391 149.999 7.85834C150.45 8.30595 150.788 8.84017 151.019 9.48532C151.249 10.1305 151.371 10.8875 151.371 11.7643V12.4542C151.371 13.3202 151.249 14.0704 151.019 14.7097C150.787 15.35 150.45 15.8823 149.998 16.3309C149.539 16.7853 149.017 17.12 148.414 17.3477C147.81 17.5745 147.124 17.6932 146.342 17.6932C145.55 17.6932 144.855 17.5745 144.247 17.3477C143.639 17.12 143.115 16.7853 142.657 16.3319L142.246 16.7464L141.836 17.1609C142.408 17.7282 143.081 18.1583 143.838 18.4405C144.595 18.7237 145.434 18.8599 146.342 18.8599C147.241 18.8599 148.072 18.7227 148.824 18.4395C149.577 18.1573 150.248 17.7263 150.819 17.1599C151.397 16.5878 151.832 15.8949 152.116 15.1048C152.401 14.3137 152.538 13.4282 152.538 12.4532V11.7633C152.538 10.7795 152.401 9.88719 152.117 9.09122C151.833 8.29622 151.398 7.5995 150.819 7.02733C150.248 6.46101 149.577 6.03091 148.824 5.74774C148.072 5.46458 147.241 5.32738 146.342 5.32738C145.434 5.32738 144.595 5.46361 143.838 5.74677C143.081 6.02896 142.407 6.46003 141.836 7.02636C141.257 7.59853 140.821 8.29525 140.538 9.09025C140.254 9.88622 140.117 10.7785 140.117 11.7623V12.4522C140.117 13.4263 140.254 14.3127 140.538 15.1038C140.822 15.894 141.257 16.5868 141.836 17.159L142.246 16.7444H142.247Z" fill="#444344"/>
<path d="M145.113 22.5063H143.794V31.1793H162.459V29.9494H145.113V22.5063Z" fill="#444344"/>
<path d="M145.113 22.5062V21.9224H143.21V31.763H163.043V29.3654H145.697V21.9224H145.113V22.5062H144.529V30.5331H161.875V30.5954H144.378V23.0901H145.113V22.5062H144.529H145.113Z" fill="#444344"/>
<path d="M187.261 13.0683C187.532 10.8584 187.666 8.94244 187.666 7.32227V5.28174H168.91V6.5117H186.405V7.47212C186.405 8.83248 186.271 10.6336 186 12.8737C185.756 14.8976 185.433 16.874 185.05 18.8162H165.879V20.0462H178.093V31.5099H179.383V20.0462H191.567V18.8162H186.352C186.715 16.9041 187.026 14.9891 187.26 13.0692L187.261 13.0683Z" fill="#444344"/>
<path d="M187.261 13.0681L187.841 13.1392C188.113 10.9118 188.251 8.97441 188.251 7.32213V4.69775H168.327V7.0954H185.822V7.47198C185.822 8.79536 185.691 10.578 185.422 12.8034C185.18 14.8109 184.859 16.7736 184.479 18.7032L185.052 18.8161V18.2322H165.297V20.6299H177.511V32.0936H179.969V20.6299H192.153V18.2322H186.354V18.8161L186.927 18.925C187.292 17.0032 187.606 15.0756 187.842 13.1401L187.262 13.0691L186.682 12.9981C186.45 14.9024 186.14 16.8057 185.78 18.7071L185.649 19.3999H190.985V19.4622H178.801V30.926H178.679V19.4622H166.465V19.3999H185.533L185.625 18.9289C186.01 16.975 186.336 14.9841 186.582 12.9436C186.853 10.689 186.991 8.87126 186.991 7.47198V5.92772H169.496V5.86544H187.084V7.32213C187.084 8.91018 186.952 10.8048 186.683 12.9981L187.263 13.0691L187.261 13.0681Z" fill="#444344"/>
<path d="M204.607 14.4033C205.128 13.8058 205.565 13.1947 205.938 12.5729L216.865 20.3458L217.615 19.2959L206.503 11.4938C207.062 10.2589 207.352 8.97935 207.352 7.65208V5.40137H206.062V7.65208C206.062 9.89307 205.177 11.9579 203.406 13.8486C201.635 15.7393 198.999 17.5249 195.499 19.2054L196.098 20.3458C199.94 18.4853 202.776 16.5041 204.607 14.4033Z" fill="#444344"/>
<path d="M204.607 14.4036L205.047 14.787C205.591 14.1633 206.049 13.523 206.438 12.873L205.937 12.5733L205.599 13.0491L217 21.1596L218.431 19.1561L206.837 11.0163L206.502 11.4941L207.034 11.7345C207.625 10.4305 207.936 9.06436 207.935 7.65145V4.81689H205.477V7.65145C205.477 8.69459 205.273 9.6881 204.86 10.6514C204.447 11.6138 203.825 12.546 202.979 13.449C201.282 15.2628 198.704 17.0192 195.245 18.6783L194.699 18.9401L195.844 21.1168L196.351 20.8706C198.295 19.9297 199.99 18.9547 201.44 17.9427C202.889 16.9307 204.091 15.8807 205.046 14.786L204.606 14.4026L204.166 14.0192C203.289 15.0254 202.159 16.017 200.772 16.9852C199.386 17.9543 197.742 18.9002 195.844 19.8197L196.098 20.3452L196.615 20.0737L196.016 18.9333L195.499 19.2047L195.752 19.7312C199.294 18.0293 201.989 16.2145 203.832 14.2469C204.757 13.2602 205.462 12.2142 205.934 11.1107C206.407 10.0082 206.646 8.84833 206.646 7.65145V5.98458H206.768V7.65145C206.768 8.8931 206.499 10.0861 205.97 11.2528L205.771 11.6936L216.798 19.4354L216.729 19.5327L205.762 11.7315L205.437 12.2735C205.082 12.8671 204.664 13.449 204.166 14.0202L204.606 14.4036H204.607Z" fill="#444344"/>
<path d="M207.232 27.5779V19.626H205.942V27.5779H193.729V28.7787H219.416V27.5779H207.232Z" fill="#444344"/>
<path d="M207.232 27.5778H207.816V19.042H205.358V26.9939H193.145V29.3624H220V26.9939H207.232V27.5778H207.816H207.232V28.1616H218.832V28.1947H194.313V28.1616H206.526V20.2097H206.648V28.1616H207.232V27.5778Z" fill="#444344"/>
</g>
<defs>
<clipPath id="clip0_27_1809">
<rect width="220" height="35.1698" fill="white"/>
</clipPath>
</defs>
</svg>
