<!-- <svg width="120" height="120" viewBox="0 0 120 120" fill="none" xmlns="http://www.w3.org/2000/svg"> -->
<svg width="current" height="auto" viewBox="0 0 120 120" fill="none" xmlns="http://www.w3.org/2000/svg">
<g clip-path="url(#clip0_27_1573)">
<path d="M0 0V120H120V0H0ZM41.5715 39.8588C41.5715 37.4033 42.0381 35.1013 42.9711 32.965C43.9042 30.8226 45.1934 28.9503 46.8447 27.3419C48.496 25.7336 50.4481 24.4629 52.6949 23.5298C54.9417 22.5967 57.3972 22.1301 60.0675 22.1301C62.7379 22.1301 65.132 22.5844 67.3788 23.4991C69.6255 24.4137 71.5654 25.6599 73.1921 27.2498C74.8251 28.8398 76.1019 30.706 77.035 32.8422C77.9681 34.9847 78.4346 37.2805 78.4346 39.736V39.8649C78.4346 42.3204 77.9681 44.6225 77.035 46.7587C76.1019 48.9012 74.8128 50.7735 73.1614 52.3818C71.5101 53.9902 69.558 55.2609 67.3112 56.194C65.0645 57.1271 62.609 57.5936 59.9386 57.5936C57.2683 57.5936 54.8742 57.1393 52.6274 56.2247C50.3806 55.3161 48.4408 54.0638 46.814 52.4739C45.1811 50.884 43.8981 49.0239 42.9711 46.8815C42.0381 44.7391 41.5715 42.4432 41.5715 39.9877V39.8588ZM55.8441 97.8821L48.6433 90.6814C48.4162 90.7858 48.2259 90.9269 47.9926 91.0252C45.7459 91.9583 43.2904 92.4248 40.62 92.4248C37.9497 92.4248 35.5556 91.9705 33.3088 91.0559C31.062 90.1473 29.1222 88.895 27.4954 87.3051C25.8625 85.7152 24.5795 83.8551 23.6525 81.7127C22.7195 79.5703 22.2529 77.2744 22.2529 74.8189V74.69C22.2529 72.2345 22.7195 69.9325 23.6525 67.7962C24.5856 65.6538 25.8748 63.7815 27.5261 62.1731C29.1774 60.5648 31.1295 59.294 33.3763 58.361C35.6231 57.4279 38.0786 56.9613 40.7489 56.9613C43.4193 56.9613 45.8134 57.4156 48.0602 58.3303C50.3069 59.2449 52.2468 60.4911 53.8735 62.081C55.5064 63.671 56.7833 65.5371 57.7164 67.6734C58.6495 69.8158 59.116 72.1117 59.116 74.5672V74.6961C59.116 77.1516 58.6495 79.4537 57.7164 81.5899C57.2867 82.5783 56.7587 83.4991 56.1756 84.3708L62.7686 90.9638L55.8502 97.8821H55.8441ZM97.7594 95.1504H65.795V59.6869H75.5801V86.7342H97.7594V95.1504Z" fill="#FF671E"/>
<path d="M47.0964 68.109C46.2922 67.2435 45.3346 66.5498 44.2358 66.0403C43.1308 65.5308 41.9276 65.2791 40.6139 65.2791C39.2143 65.2791 37.9743 65.5246 36.8938 66.0096C35.8134 66.5007 34.8926 67.1637 34.1314 68.0108C33.3702 68.858 32.787 69.8463 32.3819 70.9635C31.9767 72.0869 31.7803 73.284 31.7803 74.5547V74.6836C31.7803 75.9543 31.989 77.1514 32.4126 78.2748C32.8361 79.3982 33.45 80.3926 34.2542 81.2643C35.0584 82.1299 36.0037 82.8236 37.0841 83.327C38.1646 83.8365 39.38 84.0882 40.7367 84.0882C42.0933 84.0882 43.3763 83.8426 44.4568 83.3576C45.5372 82.8727 46.458 82.2036 47.2192 81.3564C47.9804 80.5093 48.5636 79.5271 48.9687 78.4037C49.3677 77.2803 49.5703 76.0833 49.5703 74.8125V74.6836C49.5703 73.4129 49.3555 72.2158 48.938 71.0925C48.5145 69.9691 47.9006 68.9746 47.0964 68.1029V68.109Z" fill="#FF671E"/>
<path d="M53.5852 46.4331C54.3894 47.3048 55.3348 47.9924 56.4152 48.4957C57.4956 49.0052 58.7111 49.2569 60.0677 49.2569C61.4244 49.2569 62.7074 49.0114 63.7878 48.5264C64.8682 48.0415 65.789 47.3723 66.5502 46.5252C67.3114 45.6781 67.8946 44.6897 68.2998 43.5725C68.6988 42.4491 68.9014 41.252 68.9014 39.9813V39.8524C68.9014 38.5817 68.6865 37.3846 68.2691 36.2612C67.8455 35.1378 67.2316 34.1434 66.4275 33.2717C65.6233 32.4061 64.6718 31.7124 63.5668 31.2029C62.4618 30.6934 61.2587 30.4417 59.945 30.4417C58.5453 30.4417 57.3053 30.6873 56.2249 31.1722C55.1445 31.6633 54.2237 32.3263 53.4625 33.1734C52.7013 34.0206 52.1181 35.0089 51.7129 36.1262C51.3078 37.2496 51.1113 38.4466 51.1113 39.7173V39.8463C51.1113 41.117 51.32 42.314 51.7436 43.4374C52.1672 44.5608 52.7811 45.5553 53.5852 46.427V46.4331Z" fill="#FF671E"/>
</g>
<defs>
<clipPath id="clip0_27_1573">
<rect width="120" height="120" fill="white"/>
</clipPath>
</defs>
</svg>
