<svg width="current" height="auto" viewBox="0 0 120 120" fill="none" xmlns="http://www.w3.org/2000/svg">
<g clip-path="url(#clip0_53_1214)">
<path d="M57.7103 81.5777C58.6433 79.4414 59.1099 77.1394 59.1099 74.6839V74.5549C59.1099 72.0994 58.6433 69.7974 57.7103 67.6611C56.7772 65.5249 55.4942 63.6587 53.8674 62.0688C52.2345 60.4788 50.3008 59.2327 48.054 58.318C45.8072 57.4095 43.3702 56.949 40.7428 56.949C38.1154 56.949 35.6169 57.4156 33.3702 58.3487C31.1234 59.2818 29.1713 60.5525 27.52 62.1608C25.8686 63.7692 24.5734 65.6476 23.6464 67.7839C22.7133 69.9263 22.2468 72.2222 22.2468 74.6777V74.8066C22.2468 77.2621 22.7133 79.5641 23.6464 81.7004C24.5795 83.8428 25.8625 85.7029 27.4893 87.2928C29.116 88.8827 31.0559 90.1351 33.3026 91.0436C35.5494 91.9521 37.9865 92.4125 40.6139 92.4125C43.2413 92.4125 45.7397 91.946 47.9865 91.0129C48.2198 90.9147 48.4162 90.7735 48.6372 90.6691L55.8379 97.8699L62.7563 90.9515L56.1633 84.3585C56.7465 83.4807 57.2744 82.566 57.7041 81.5777H57.7103ZM49.5764 74.8128C49.5764 76.0835 49.3738 77.2805 48.9748 78.4039C48.5697 79.5273 47.9865 80.5157 47.2253 81.3567C46.4641 82.2038 45.5371 82.8729 44.4629 83.3579C43.3824 83.8428 42.1424 84.0884 40.7428 84.0884C39.3432 84.0884 38.1707 83.8367 37.0902 83.3272C36.0098 82.8177 35.0645 82.1301 34.2603 81.2646C33.4561 80.399 32.8422 79.3984 32.4187 78.275C31.9951 77.1516 31.7864 75.9546 31.7864 74.6839V74.5549C31.7864 73.2842 31.9889 72.0872 32.388 70.9638C32.787 69.8404 33.3763 68.8582 34.1375 68.0111C34.8987 67.1639 35.8195 66.4948 36.8999 66.0098C37.9804 65.5249 39.2204 65.2793 40.62 65.2793C41.9337 65.2793 43.1369 65.531 44.2419 66.0405C45.3407 66.55 46.2983 67.2376 47.1025 68.1093C47.9067 68.981 48.5206 69.9754 48.9441 71.0988C49.3677 72.2222 49.5764 73.4193 49.5764 74.69V74.8189V74.8128Z" fill="white"/>
<path d="M46.814 52.4739C48.4469 54.0638 50.3806 55.3161 52.6274 56.2247C54.8742 57.1332 57.3112 57.5936 59.9386 57.5936C62.566 57.5936 65.0645 57.1271 67.3112 56.194C69.558 55.2609 71.504 53.9902 73.1614 52.3818C74.8128 50.7735 76.1019 48.895 77.035 46.7587C77.9681 44.6225 78.4346 42.3204 78.4346 39.8649V39.736C78.4346 37.2805 77.9681 34.9785 77.035 32.8422C76.1019 30.706 74.8189 28.8398 73.1921 27.2498C71.5592 25.6599 69.6194 24.4137 67.3788 23.4991C65.132 22.5905 62.6949 22.1301 60.0675 22.1301C57.4401 22.1301 54.9417 22.5967 52.6949 23.5298C50.4481 24.4629 48.5021 25.7336 46.8447 27.3419C45.1934 28.9503 43.8981 30.8287 42.9711 32.965C42.0381 35.1074 41.5715 37.4033 41.5715 39.8588V39.9877C41.5715 42.4432 42.0381 44.7452 42.9711 46.8815C43.9042 49.0239 45.1872 50.884 46.814 52.4739ZM51.105 39.7299C51.105 38.4592 51.3076 37.2621 51.7066 36.1387C52.1056 35.0153 52.6949 34.0331 53.4561 33.186C54.2173 32.3389 55.1443 31.6697 56.2185 31.1848C57.299 30.6998 58.539 30.4543 59.9386 30.4543C61.2523 30.4543 62.4555 30.706 63.5605 31.2155C64.6593 31.725 65.6169 32.4125 66.4211 33.2842C67.2253 34.1559 67.8392 35.1504 68.2627 36.2738C68.6863 37.3972 68.895 38.5942 68.895 39.8649V39.9939C68.895 41.2646 68.6924 42.4616 68.2934 43.585C67.8883 44.7084 67.3051 45.6967 66.5439 46.5378C65.7827 47.3849 64.8619 48.054 63.7815 48.539C62.701 49.0239 61.461 49.2695 60.0614 49.2695C58.6618 49.2695 57.4893 49.0117 56.4088 48.5083C55.3284 47.9988 54.3831 47.3112 53.5789 46.4457C52.7747 45.5801 52.1608 44.5795 51.7373 43.4561C51.3137 42.3327 51.105 41.1357 51.105 39.8649V39.7299Z" fill="white"/>
<path d="M75.574 59.6808H65.7888V95.1443H97.7594V86.7342H75.574V59.6808Z" fill="white"/>
<path d="M0 0V120H120V0H0ZM41.5715 39.8588C41.5715 37.4033 42.0381 35.1013 42.9711 32.965C43.9042 30.8226 45.1934 28.9503 46.8447 27.3419C48.496 25.7336 50.4481 24.4629 52.6949 23.5298C54.9417 22.5967 57.3972 22.1301 60.0675 22.1301C62.7379 22.1301 65.132 22.5844 67.3788 23.4991C69.6255 24.4137 71.5654 25.6599 73.1921 27.2498C74.825 28.8398 76.1019 30.706 77.035 32.8422C77.9681 34.9847 78.4346 37.2805 78.4346 39.736V39.8649C78.4346 42.3204 77.9681 44.6225 77.035 46.7587C76.1019 48.9012 74.8128 50.7735 73.1614 52.3818C71.5101 53.9902 69.558 55.2609 67.3112 56.194C65.0645 57.1271 62.609 57.5936 59.9386 57.5936C57.2683 57.5936 54.8742 57.1393 52.6274 56.2247C50.3806 55.3161 48.4408 54.0638 46.814 52.4739C45.1811 50.884 43.8981 49.0239 42.9711 46.8815C42.0381 44.7391 41.5715 42.4432 41.5715 39.9877V39.8588ZM55.8441 97.8821L48.6433 90.6814C48.4162 90.7858 48.2259 90.9269 47.9926 91.0252C45.7459 91.9583 43.2904 92.4248 40.62 92.4248C37.9497 92.4248 35.5556 91.9705 33.3088 91.0559C31.062 90.1473 29.1222 88.895 27.4954 87.3051C25.8625 85.7152 24.5795 83.8551 23.6525 81.7127C22.7195 79.5703 22.2529 77.2744 22.2529 74.8189V74.69C22.2529 72.2345 22.7195 69.9325 23.6525 67.7962C24.5856 65.6538 25.8748 63.7815 27.5261 62.1731C29.1774 60.5648 31.1295 59.294 33.3763 58.361C35.6231 57.4279 38.0786 56.9613 40.7489 56.9613C43.4193 56.9613 45.8134 57.4156 48.0602 58.3303C50.3069 59.2449 52.2468 60.4911 53.8735 62.081C55.5064 63.671 56.7833 65.5371 57.7164 67.6734C58.6495 69.8158 59.116 72.1117 59.116 74.5672V74.6961C59.116 77.1516 58.6495 79.4537 57.7164 81.5899C57.2867 82.5783 56.7587 83.4991 56.1756 84.3708L62.7686 90.9638L55.8502 97.8821H55.8441ZM97.7594 95.1504H65.795V59.6869H75.5801V86.7342H97.7594V95.1504Z" fill="#FF671E"/>
<path d="M47.0964 68.1093C46.2922 67.2437 45.3346 66.55 44.2357 66.0405C43.1308 65.531 41.9276 65.2793 40.6139 65.2793C39.2142 65.2793 37.9742 65.5249 36.8938 66.0098C35.8134 66.5009 34.8926 67.1639 34.1314 68.0111C33.3702 68.8582 32.787 69.8465 32.3818 70.9638C31.9767 72.0872 31.7802 73.2842 31.7802 74.5549V74.6839C31.7802 75.9546 31.9889 77.1516 32.4125 78.275C32.8361 79.3984 33.45 80.3929 34.2541 81.2646C35.0583 82.1301 36.0037 82.8238 37.0841 83.3272C38.1645 83.8367 39.38 84.0884 40.7366 84.0884C42.0933 84.0884 43.3763 83.8428 44.4567 83.3579C45.5371 82.8729 46.4579 82.2038 47.2192 81.3567C47.9804 80.5095 48.5635 79.5273 48.9687 78.4039C49.3677 77.2805 49.5703 76.0835 49.5703 74.8128V74.6839C49.5703 73.4131 49.3554 72.2161 48.938 71.0927C48.5144 69.9693 47.9006 68.9748 47.0964 68.1031V68.1093Z" fill="#FF671E"/>
<path d="M53.585 46.4334C54.3892 47.3051 55.3346 47.9926 56.415 48.496C57.4954 49.0055 58.7109 49.2572 60.0675 49.2572C61.4242 49.2572 62.7072 49.0117 63.7876 48.5267C64.868 48.0417 65.7888 47.3726 66.55 46.5255C67.3112 45.6783 67.8944 44.69 68.2996 43.5727C68.6986 42.4494 68.9012 41.2523 68.9012 39.9816V39.8527C68.9012 38.582 68.6863 37.3849 68.2689 36.2615C67.8453 35.1381 67.2314 34.1436 66.4273 33.2719C65.6231 32.4064 64.6716 31.7127 63.5666 31.2032C62.4616 30.6937 61.2584 30.442 59.9448 30.442C58.5451 30.442 57.3051 30.6875 56.2247 31.1725C55.1443 31.6636 54.2234 32.3266 53.4622 33.1737C52.701 34.0209 52.1179 35.0092 51.7127 36.1265C51.3075 37.2498 51.1111 38.4469 51.1111 39.7176V39.8465C51.1111 41.1173 51.3198 42.3143 51.7434 43.4377C52.167 44.5611 52.7808 45.5556 53.585 46.4273V46.4334Z" fill="#FF671E"/>
</g>
<defs>
<clipPath id="clip0_53_1214">
<rect width="120" height="120" fill="white"/>
</clipPath>
</defs>
</svg>
